<?xml version="1.0" encoding="UTF-8" standalone="no"?>
<svg
   xmlns:dc="http://purl.org/dc/elements/1.1/"
   xmlns:cc="http://creativecommons.org/ns#"
   xmlns:rdf="http://www.w3.org/1999/02/22-rdf-syntax-ns#"
   xmlns:svg="http://www.w3.org/2000/svg"
   xmlns="http://www.w3.org/2000/svg"
   viewBox="0 0 1000 666.66669"
   height="666.66669"
   width="1000"
   xml:space="preserve"
   id="svg2"
   version="1.1"><metadata
     id="metadata8"><rdf:RDF><cc:Work
         rdf:about=""><dc:format>image/svg+xml</dc:format><dc:type
           rdf:resource="http://purl.org/dc/dcmitype/StillImage" /></cc:Work></rdf:RDF></metadata><defs
     id="defs6"><clipPath
       id="clipPath70"
       clipPathUnits="userSpaceOnUse"><path
         id="path68"
         d="M 6310.3,658.988 H 1717.57 V 3985.84 H 6310.3 Z" /></clipPath></defs><g
     transform="matrix(1.3333333,0,0,-1.3333333,0,666.66667)"
     id="g10"><g
       transform="scale(0.1)"
       id="g12"><path
         id="path14"
         style="fill:#e8e6e5;fill-opacity:1;fill-rule:nonzero;stroke:none"
         d="M 7499.99,0 H 0 V 5000 H 7499.99 V 0" /><path
         id="path16"
         style="fill:none;stroke:#d5cbc6;stroke-width:19.67819977;stroke-linecap:butt;stroke-linejoin:miter;stroke-miterlimit:10;stroke-dasharray:none;stroke-opacity:1"
         d="M 1257.58,3413.22 H 6251.27" /><path
         id="path18"
         style="fill:none;stroke:#d5cbc6;stroke-width:19.67819977;stroke-linecap:butt;stroke-linejoin:miter;stroke-miterlimit:10;stroke-dasharray:none;stroke-opacity:1"
         d="M 6186.06,650.922 H 1322.8 c -36.02,0 -65.22,29.199 -65.22,65.207 V 3675.36 c 0,36.01 29.2,65.21 65.22,65.21 h 4863.26 c 36.01,0 65.21,-29.2 65.21,-65.21 V 716.129 c 0,-36.008 -29.2,-65.207 -65.21,-65.207 z" /><path
         id="path20"
         style="fill:#f79395;fill-opacity:1;fill-rule:nonzero;stroke:none"
         d="m 1586.69,3573.55 c 0,-25.22 -20.46,-45.67 -45.68,-45.67 -25.23,0 -45.68,20.45 -45.68,45.67 0,25.23 20.45,45.68 45.68,45.68 25.22,0 45.68,-20.45 45.68,-45.68" /><path
         id="path22"
         style="fill:#d5c23e;fill-opacity:1;fill-rule:nonzero;stroke:none"
         d="m 1764.21,3573.55 c 0,-25.22 -20.45,-45.67 -45.68,-45.67 -25.23,0 -45.67,20.45 -45.67,45.67 0,25.23 20.44,45.68 45.67,45.68 25.23,0 45.68,-20.45 45.68,-45.68" /><path
         id="path24"
         style="fill:#30867a;fill-opacity:1;fill-rule:nonzero;stroke:none"
         d="m 1941.74,3573.55 c 0,-25.22 -20.46,-45.67 -45.68,-45.67 -25.23,0 -45.68,20.45 -45.68,45.67 0,25.23 20.45,45.68 45.68,45.68 25.22,0 45.68,-20.45 45.68,-45.68" /><path
         id="path26"
         style="fill:#e7e5e4;fill-opacity:1;fill-rule:nonzero;stroke:none"
         d="M 6899.99,2310.64 H 5726.38 c -33.09,0 -59.91,26.82 -59.91,59.91 v 1085.41 c 0,33.09 26.82,59.91 59.91,59.91 h 1173.61 c 33.09,0 59.92,-26.82 59.92,-59.91 V 2370.55 c 0,-33.09 -26.83,-59.91 -59.92,-59.91" /><path
         id="path28"
         style="fill:none;stroke:#d5cbc6;stroke-width:19.67819977;stroke-linecap:butt;stroke-linejoin:miter;stroke-miterlimit:10;stroke-dasharray:none;stroke-opacity:1"
         d="M 6899.99,2310.64 H 5726.38 c -33.09,0 -59.91,26.82 -59.91,59.91 v 1085.41 c 0,33.09 26.82,59.91 59.91,59.91 h 1173.61 c 33.09,0 59.92,-26.82 59.92,-59.91 V 2370.55 c 0,-33.09 -26.83,-59.91 -59.92,-59.91 z" /><path
         id="path30"
         style="fill:#af61b7;fill-opacity:1;fill-rule:nonzero;stroke:none"
         d="m 6010.11,2624.16 h 609.98 c 33.26,0 60.23,26.96 60.23,60.22 v 499.91 c 0,33.25 -26.97,60.21 -60.23,60.21 h -609.98 c -33.25,0 -60.21,-26.96 -60.21,-60.21 v -499.91 c 0,-33.26 26.96,-60.22 60.21,-60.22" /><path
         id="path32"
         style="fill:none;stroke:#ffffff;stroke-width:16.4659996;stroke-linecap:round;stroke-linejoin:round;stroke-miterlimit:10;stroke-dasharray:none;stroke-opacity:1"
         d="m 6481.72,2831.19 h -337.07 v 226.05 h 337.07 v -56.51 z" /><path
         id="path34"
         style="fill:none;stroke:#ffffff;stroke-width:16.4659996;stroke-linecap:round;stroke-linejoin:round;stroke-miterlimit:10;stroke-dasharray:none;stroke-opacity:1"
         d="m 6144.65,3057.24 168.54,-132.82 168.53,132.82" /><path
         id="path36"
         style="fill:#e7e5e4;fill-opacity:1;fill-rule:nonzero;stroke:none"
         d="M 1735.31,1401.75 H 616.051 c -31.555,0 -57.129,25.58 -57.129,57.14 v 975.84 c 0,31.55 25.574,57.13 57.129,57.13 H 1735.31 c 31.55,0 57.14,-25.58 57.14,-57.13 v -975.84 c 0,-31.56 -25.59,-57.14 -57.14,-57.14" /><path
         id="path38"
         style="fill:none;stroke:#d5cbc6;stroke-width:19.67819977;stroke-linecap:butt;stroke-linejoin:miter;stroke-miterlimit:10;stroke-dasharray:none;stroke-opacity:1"
         d="M 1735.31,1401.75 H 616.051 c -31.555,0 -57.129,25.58 -57.129,57.14 v 975.84 c 0,31.55 25.574,57.13 57.129,57.13 H 1735.31 c 31.55,0 57.14,-25.58 57.14,-57.13 v -975.84 c 0,-31.56 -25.59,-57.14 -57.14,-57.14 z" /><path
         id="path40"
         style="fill:#f79395;fill-opacity:1;fill-rule:nonzero;stroke:none"
         d="M 1463.02,1611.77 H 882.531 c -36.668,0 -66.394,29.72 -66.394,66.39 v 560.61 c 0,36.67 29.726,66.39 66.394,66.39 h 580.489 c 36.67,0 66.4,-29.72 66.4,-66.39 v -560.61 c 0,-36.67 -29.73,-66.39 -66.4,-66.39" /><path
         id="path42"
         style="fill:#ffffff;fill-opacity:1;fill-rule:nonzero;stroke:none"
         d="m 1358.68,1963.78 h -86.69 c -0.47,26.06 -3.86,52.13 -10.31,78.18 h 73.61 c 13.29,-23.32 21.57,-49.87 23.39,-78.18 z m -23.39,-101.77 h -75.94 c 6.86,26.07 11.01,52.12 12.28,78.19 h 87.05 c -1.82,-28.32 -10.09,-54.87 -23.39,-78.19 z m -107.76,-84.88 c 9.89,20.43 18.2,40.86 24.86,61.3 h 66.88 c -23.21,-29.01 -55.1,-50.75 -91.74,-61.3 z m -50.4,-7.08 c -8.08,0 -16.04,0.53 -23.83,1.55 -11.12,22.28 -20.59,44.55 -28.21,66.83 h 104.07 c -7.62,-22.28 -17.09,-44.55 -28.19,-66.83 -7.81,-1.02 -15.76,-1.55 -23.84,-1.55 z m -142.14,68.38 h 66.88 c 6.66,-20.43 14.97,-40.87 24.85,-61.3 -36.63,10.55 -68.53,32.29 -91.73,61.3 z m -16.02,23.58 c -13.3,23.32 -21.579,49.87 -23.392,78.19 h 87.052 c 1.27,-26.06 5.41,-52.12 12.28,-78.19 z m 0,179.95 h 73.61 c -6.45,-26.05 -9.84,-52.12 -10.31,-78.18 h -86.692 c 1.813,28.31 10.092,54.86 23.392,78.18 z m 105.28,84.15 c -10.24,-20.18 -18.54,-40.38 -24.99,-60.56 h -64.27 c 22.68,28.35 53.66,49.76 89.26,60.56 z m 52.88,7.82 c 9.7,0 19.21,-0.77 28.49,-2.22 12.36,-22.06 22.04,-44.11 29.24,-66.16 H 1119.4 c 7.2,22.05 16.88,44.1 29.24,66.16 9.28,1.45 18.8,2.22 28.49,2.22 z m 73.26,-193.73 c -1.78,-26.06 -6.5,-52.12 -13.86,-78.19 h -118.81 c -7.35,26.06 -12.07,52.12 -13.85,78.19 z m -147.31,23.58 c 0.03,26.06 3.1,52.13 9.55,78.18 h 129 c 6.45,-26.05 9.52,-52.12 9.55,-78.18 z m 216.19,101.77 H 1255 c -6.45,20.18 -14.75,40.38 -24.99,60.56 35.6,-10.8 66.58,-32.21 89.26,-60.56 z m -284.74,29.04 c -78.319,-78.32 -78.319,-206.88 0,-285.21 78.32,-78.32 206.88,-78.32 285.2,0 78.32,78.33 78.32,206.89 0,285.21 -78.32,78.32 -206.88,78.32 -285.2,0" /><path
         id="path44"
         style="fill:#af61b7;fill-opacity:1;fill-rule:nonzero;stroke:none"
         d="M 1668.6,4025.68 H 654.617 c -20.945,0 -37.929,16.98 -37.929,37.93 v 0 c 0,20.94 16.984,37.93 37.929,37.93 H 1668.6 c 20.95,0 37.93,-16.99 37.93,-37.93 v 0 c 0,-20.95 -16.98,-37.93 -37.93,-37.93" /><path
         id="path46"
         style="fill:#62cbcf;fill-opacity:1;fill-rule:nonzero;stroke:none"
         d="m 6941.31,1548.84 h -492.15 c -20.94,0 -37.93,16.98 -37.93,37.93 v 0 c 0,20.94 16.99,37.93 37.93,37.93 h 492.15 c 20.95,0 37.93,-16.99 37.93,-37.93 v 0 c 0,-20.95 -16.98,-37.93 -37.93,-37.93" /><path
         id="path48"
         style="fill:#af61b7;fill-opacity:1;fill-rule:nonzero;stroke:none"
         d="m 6596.62,1110.07 h -60.13 c -15.8,0 -28.62,12.81 -28.62,28.61 v 56.46 c 0,15.8 12.82,28.6 28.62,28.6 h 60.13 c 15.81,0 28.62,-12.8 28.62,-28.6 v -56.46 c 0,-15.8 -12.81,-28.61 -28.62,-28.61" /><path
         id="path50"
         style="fill:#f79395;fill-opacity:1;fill-rule:nonzero;stroke:none"
         d="m 896.152,847.289 h -60.14 c -15.801,0 -28.61,12.813 -28.61,28.609 v 56.454 c 0,15.796 12.809,28.617 28.61,28.617 h 60.14 c 15.801,0 28.614,-12.821 28.614,-28.617 v -56.454 c 0,-15.796 -12.813,-28.609 -28.614,-28.609" /><path
         id="path52"
         style="fill:#f79395;fill-opacity:1;fill-rule:nonzero;stroke:none"
         d="M 5498.9,4064.86 H 4498.07 c -16.64,0 -30.13,13.48 -30.13,30.12 v 244.36 c 0,16.63 13.49,30.11 30.13,30.11 H 5498.9 c 16.64,0 30.12,-13.48 30.12,-30.11 v -244.36 c 0,-16.64 -13.48,-30.12 -30.12,-30.12" /><path
         id="path54"
         style="fill:none;stroke:#ffffff;stroke-width:11.80309963;stroke-linecap:butt;stroke-linejoin:miter;stroke-miterlimit:10;stroke-dasharray:none;stroke-opacity:1"
         d="m 4612.47,4260.92 h 711.78" /><path
         id="path56"
         style="fill:none;stroke:#ffffff;stroke-width:11.80309963;stroke-linecap:butt;stroke-linejoin:miter;stroke-miterlimit:10;stroke-dasharray:none;stroke-opacity:1"
         d="M 4612.47,4187.87 H 4902.4" /><path
         id="path58"
         style="fill:#f79395;fill-opacity:1;fill-rule:nonzero;stroke:none"
         d="m 4583.52,4099.32 v -118.71 l 149.3,118.71 z" /><path
         id="path60"
         style="fill:#62cbcf;fill-opacity:1;fill-rule:nonzero;stroke:none"
         d="m 3039.97,4046.74 h -484.48 c -47.06,0 -85.2,38.15 -85.2,85.2 v 450.42 c 0,35.68 28.92,64.6 64.59,64.6 h 505.09 c 35.67,0 64.59,-28.92 64.59,-64.6 v -471.02 c 0,-35.68 -28.92,-64.6 -64.59,-64.6" /><path
         id="path62"
         style="fill:#ffffff;fill-opacity:1;fill-rule:nonzero;stroke:none"
         d="m 2920.61,4268.93 c -2.58,-2.58 -5.16,-5.16 -7.74,-7.74 -4.52,-3.87 -8.38,-8.39 -12.9,-12.9 -6.45,-6.45 -13.55,-9.68 -23.22,-9.68 -1.29,0 -1.93,0 -3.22,0 -19.35,1.29 -37.41,9.03 -50.31,15.48 -36.76,18.06 -69.01,43.21 -96.09,75.46 -21.93,26.45 -36.76,51.6 -47.09,78.04 -6.44,15.48 -9.03,27.73 -7.73,39.99 0.64,7.09 3.22,13.54 9.03,18.7 l 21.93,21.93 c 1.93,1.93 5.15,4.51 9.02,4.51 3.87,0 6.45,-1.93 9.03,-4.51 3.87,-3.87 7.74,-7.74 11.61,-11.61 1.94,-1.94 3.87,-4.51 6.45,-6.45 l 18.06,-18.06 c 1.93,-1.93 4.51,-5.8 4.51,-9.03 0,-3.87 -2.58,-7.09 -4.51,-9.02 -1.94,-1.94 -3.87,-3.88 -5.81,-5.81 -5.8,-5.81 -10.96,-10.96 -16.12,-16.12 0,0 0,0 -0.64,-0.65 -6.45,-6.45 -5.16,-12.26 -3.87,-16.12 v -0.65 c 4.51,-11.61 11.61,-21.92 21.28,-34.83 18.06,-22.57 37.41,-39.98 58.69,-53.53 2.58,-1.93 5.8,-3.22 8.38,-4.51 2.58,-1.29 4.52,-1.94 6.45,-3.23 l 0.65,-0.64 c 6.44,-3.22 12.89,-1.93 18.06,3.22 l 22.57,22.58 c 1.93,1.93 5.16,4.51 9.03,4.51 3.23,0 6.45,-2.58 8.38,-4.51 l 36.12,-36.12 c 5.81,-5.8 5.81,-12.25 0,-18.7 z m 14.83,33.53 -36.11,36.12 c -6.45,7.1 -14.84,10.97 -23.22,10.97 -8.39,0 -16.77,-3.87 -23.22,-10.33 l -20.64,-20.63 c -1.29,0.64 -2.58,1.29 -3.87,1.93 -2.58,1.29 -4.51,1.94 -6.45,3.23 -19.35,12.25 -36.76,28.38 -53.53,49.02 -7.74,9.67 -13.54,18.69 -16.77,26.43 5.17,4.52 9.68,9.68 14.19,14.19 1.94,1.94 3.87,3.88 5.81,5.81 7.09,7.09 10.96,15.48 10.96,23.86 0,8.39 -3.87,16.77 -10.96,23.87 l -18.06,18.05 c -1.94,1.94 -3.87,3.87 -5.81,6.45 -3.86,3.87 -8.38,8.38 -12.25,12.26 -6.45,6.45 -14.83,10.31 -23.22,10.31 -8.38,0 -16.12,-3.22 -23.21,-10.31 l -22.58,-22.58 c -8.38,-8.38 -13.54,-19.35 -14.83,-31.6 -1.29,-19.35 3.87,-37.4 8.38,-49.02 10.32,-29.66 26.44,-56.1 50.31,-84.48 29.02,-34.18 63.2,-61.28 103.19,-80.62 14.83,-7.09 35.47,-15.48 58.05,-17.41 1.28,0 2.57,0 4.51,0 15.48,0 28.38,5.8 38.69,16.77 0,0 0,0 0.65,0.64 3.23,3.87 7.09,7.74 11.61,11.61 2.58,2.58 5.81,5.8 8.38,8.38 13.55,14.19 13.55,33.54 0,47.08" /><g
         id="g64"><g
           clip-path="url(#clipPath70)"
           id="g66"><path
             id="path72"
             style="fill:#826467;fill-opacity:1;fill-rule:nonzero;stroke:none"
             d="m 5147.45,1774.18 -365.02,48.6 2.85,-36.25 -312.09,-41.55 c 0,0 -201.16,-504.7 -23.87,-1614.648 h 253.87 l 91.36,1125.488 h 32.46 L 4915.5,130.332 h 253.87 c 177.29,1109.948 -21.92,1643.848 -21.92,1643.848" /><path
             id="path74"
             style="fill:none;stroke:#28262c;stroke-width:12.33310032;stroke-linecap:round;stroke-linejoin:round;stroke-miterlimit:10;stroke-dasharray:none;stroke-opacity:1"
             d="m 4678.49,1255.82 h 264.86" /><path
             id="path76"
             style="fill:#f79395;fill-opacity:1;fill-rule:nonzero;stroke:none"
             d="m 5360.61,2306.59 c -31.23,49.85 -206.65,48.09 -215.91,49.17 -47.42,5.56 30.41,-371.8 129.06,-701.67 18.92,-63.24 88.5,-96.18 149.27,-70.41 0.66,0.28 1.31,0.56 1.97,0.83 48.08,20.37 75.43,71.41 65.76,122.72 -46.92,248.9 -94.04,541.73 -130.15,599.36" /><path
             id="path78"
             style="fill:#ec767f;fill-opacity:1;fill-rule:nonzero;stroke:none"
             d="m 5402.42,2170.14 -223.97,-86.91 -21,106.26 231.92,57.85 13.05,-77.2" /><path
             id="path80"
             style="fill:#ec767f;fill-opacity:1;fill-rule:nonzero;stroke:none"
             d="m 5444.72,1957.55 c 0,0 -106.1,-142.49 -101.04,-135.94 5.05,6.55 83.2,230.27 83.2,230.27 l 17.84,-94.33" /><path
             id="path82"
             style="fill:#f79395;fill-opacity:1;fill-rule:nonzero;stroke:none"
             d="M 5596.42,2149.07 5292.3,1755.04 c -39.93,-51.73 -27.18,-126.53 27.64,-162.12 v 0 c 54.72,-35.52 128.11,-16.85 159.19,40.51 l 253.15,467.05 -135.86,48.59" /><path
             id="path84"
             style="fill:#f79395;fill-opacity:1;fill-rule:nonzero;stroke:none"
             d="m 5675.13,2047.89 c -65.93,21.3 -102.11,92 -80.81,157.94 21.3,65.93 92.01,102.1 157.94,80.81 65.93,-21.3 102.11,-92.01 80.81,-157.94 -21.3,-65.94 -92.01,-102.11 -157.94,-80.81" /><path
             id="path86"
             style="fill:#f79395;fill-opacity:1;fill-rule:nonzero;stroke:none"
             d="m 5805.17,2242.68 c 0,0 34.33,35.64 -26.58,60.62 -60.9,24.98 -136.2,19.25 -184.27,-97.47 l 210.85,36.85" /><path
             id="path88"
             style="fill:#3b3261;fill-opacity:1;fill-rule:nonzero;stroke:none"
             d="m 5868.26,2491.69 127.34,-55.21 c 7.08,-3.07 9.66,-11.47 5.75,-18.76 l -167.51,-312.91 c -3.9,-7.28 -12.81,-10.71 -19.89,-7.63 l -127.34,55.2 c -7.09,3.08 -9.66,11.48 -5.77,18.76 l 167.52,312.91 c 3.91,7.29 12.82,10.71 19.9,7.64" /><path
             id="path90"
             style="fill:#2d2446;fill-opacity:1;fill-rule:nonzero;stroke:none"
             d="m 5856.1,2497.23 127.33,-55.21 c 7.09,-3.07 9.67,-11.47 5.76,-18.76 l -167.52,-312.9 c -3.89,-7.29 -12.8,-10.71 -19.89,-7.64 l -127.33,55.21 c -7.09,3.07 -9.67,11.46 -5.76,18.76 l 167.51,312.9 c 3.9,7.29 12.81,10.71 19.9,7.64" /><path
             id="path92"
             style="fill:#dfdcda;fill-opacity:1;fill-rule:nonzero;stroke:none"
             d="m 5841.73,2465.39 111.89,-48.5 -136.53,-255.02 -111.88,48.5 136.52,255.02" /><path
             id="path94"
             style="fill:#ffffff;fill-opacity:1;fill-rule:nonzero;stroke:none"
             d="m 5953.62,2416.89 -248.41,-206.52 136.52,255.02 z" /><path
             id="path96"
             style="fill:#f79395;fill-opacity:1;fill-rule:nonzero;stroke:none"
             d="m 5742.03,2313.69 c 0,0 28.35,-5.53 53.94,-20.03 11.28,-6.38 17.05,-19.39 13.93,-31.97 v 0 c -2.86,-11.47 -12.46,-19.99 -24.18,-21.47 l -66.2,-8.35 c 0,0 -34.55,-59.54 -79.67,-66.22 l 41.39,104.53 60.79,43.51" /><path
             id="path98"
             style="fill:#62cbcf;fill-opacity:1;fill-rule:nonzero;stroke:none"
             d="m 4896.59,2802.79 c -7.31,0.05 469.46,-65.97 548.13,-609.55 l -247.4,-37.9 -49.87,-410.36 h -690.17 l -137.02,758.19 c 0,0 152.91,219.14 436.81,299.62 h 139.52" /><path
             id="path100"
             style="fill:none;stroke:#28262c;stroke-width:12.33310032;stroke-linecap:round;stroke-linejoin:round;stroke-miterlimit:10;stroke-dasharray:none;stroke-opacity:1"
             d="m 5197.32,2155.34 21.47,237.34" /><path
             id="path102"
             style="fill:#f79395;fill-opacity:1;fill-rule:nonzero;stroke:none"
             d="m 4941.9,2795.02 v 188.81 H 4720.64 V 2792.8 c -11.32,-3.38 -30.18,-10.2 -59.44,-24.1 l 172.56,-102.8 176.43,102.8 c 0,0 -28.01,16.29 -68.29,26.32" /><path
             id="path104"
             style="fill:#28262c;fill-opacity:1;fill-rule:nonzero;stroke:none"
             d="m 4718.59,2960.77 c 0,0 39.73,-105.52 145.81,-96.41 97.5,8.37 81.98,154.6 81.98,154.6 l -227.79,-58.19" /><path
             id="path106"
             style="fill:#ec767f;fill-opacity:1;fill-rule:nonzero;stroke:none"
             d="m 4622.09,3101.09 c -34.68,-31.46 -112.23,87.86 -78.72,121.36 33.51,33.49 59.08,-19.06 59.08,-19.06 l 14.96,-35.62 11.28,-48.23 2.68,-12.64 -9.28,-5.81" /><path
             id="path108"
             style="fill:none;stroke:#28262c;stroke-width:9.92837048;stroke-linecap:round;stroke-linejoin:round;stroke-miterlimit:10;stroke-dasharray:none;stroke-opacity:1"
             d="m 4559.56,3180.18 c 0,0 26.25,11.81 49.57,-26.24" /><path
             id="path110"
             style="fill:#ec767f;fill-opacity:1;fill-rule:nonzero;stroke:none"
             d="m 5032.22,3104.71 c 31.9,-34.28 119.26,78.05 88.7,114.26 -30.55,36.22 -60.47,-13.99 -60.47,-13.99 l -17.92,-34.22 -15.33,-47.11 -3.74,-12.36 8.76,-6.58" /><path
             id="path112"
             style="fill:none;stroke:#28262c;stroke-width:9.92837048;stroke-linecap:round;stroke-linejoin:round;stroke-miterlimit:10;stroke-dasharray:none;stroke-opacity:1"
             d="m 5101.21,3178.23 c 0,0 -25.15,13.99 -51.62,-21.96" /><path
             id="path114"
             style="fill:#28262c;fill-opacity:1;fill-rule:nonzero;stroke:none"
             d="m 4561.26,3336.26 c 0,-157.94 120.42,-232.83 268.97,-232.83 148.54,0 268.95,74.89 268.95,232.83 0,157.95 -120.41,265.4 -268.95,265.4 -148.55,0 -268.97,-107.45 -268.97,-265.4" /><path
             id="path116"
             style="fill:#f79395;fill-opacity:1;fill-rule:nonzero;stroke:none"
             d="m 4597.82,3325.28 c 0,-96.96 13.7,-180.63 27.37,-240.02 13.39,-58.14 51.06,-98.77 104.31,-131.47 l 9.69,-5.96 c 56.34,-34.6 129.12,-35.41 186.32,-2.06 v 0 c 57.69,33.63 98.08,77.97 110.51,140.36 22.61,113.47 25.08,239.15 25.08,239.15 0,0 21.51,244.76 -228.33,240.01 -249.86,-4.76 -234.95,-240.01 -234.95,-240.01" /><path
             id="path118"
             style="fill:none;stroke:#28262c;stroke-width:12.31630039;stroke-linecap:round;stroke-linejoin:round;stroke-miterlimit:10;stroke-dasharray:none;stroke-opacity:1"
             d="m 4814.3,3185.59 v -33.87 c 0,-2 0.38,-3.93 1.09,-5.69 2.78,-6.92 10.77,-10.24 17.99,-8.32 l 15.53,4.12" /><path
             id="path120"
             style="fill:#28262c;fill-opacity:1;fill-rule:nonzero;stroke:none"
             d="m 4774.57,3316.93 -124.17,-29.1 c 0,0 5.65,31.6 56.44,43.09 50.8,11.48 67.73,-13.99 67.73,-13.99" /><path
             id="path122"
             style="fill:#28262c;fill-opacity:1;fill-rule:nonzero;stroke:none"
             d="m 4884.78,3316.93 119.89,-29.1 c 0,0 -5.45,31.6 -54.5,43.09 -49.04,11.48 -65.39,-13.99 -65.39,-13.99" /><path
             id="path124"
             style="fill:#28262c;fill-opacity:1;fill-rule:nonzero;stroke:none"
             d="m 4748.33,3225.72 c 0,-11.53 -9.37,-20.88 -20.93,-20.88 -11.57,0 -20.94,9.35 -20.94,20.88 0,11.54 9.37,20.89 20.94,20.89 11.56,0 20.93,-9.35 20.93,-20.89" /><path
             id="path126"
             style="fill:#28262c;fill-opacity:1;fill-rule:nonzero;stroke:none"
             d="m 4946.86,3225.72 c 0,-11.53 -9.38,-20.88 -20.94,-20.88 -11.57,0 -20.95,9.35 -20.95,20.88 0,11.54 9.38,20.89 20.95,20.89 11.56,0 20.94,-9.35 20.94,-20.89" /><path
             id="path128"
             style="fill:#ffffff;fill-opacity:1;fill-rule:nonzero;stroke:none"
             d="m 4748.33,3098.29 h 161.49 c 0,0 -71.57,-87.07 -161.49,0" /><path
             id="path130"
             style="fill:none;stroke:#af61b7;stroke-width:13.42300034;stroke-linecap:butt;stroke-linejoin:miter;stroke-miterlimit:10;stroke-dasharray:none;stroke-opacity:1"
             d="m 4807.63,3217.61 c 0,-49.18 -39.86,-89.05 -89.04,-89.05 -49.18,0 -89.05,39.87 -89.05,89.05 0,49.18 39.87,89.05 89.05,89.05 49.18,0 89.04,-39.87 89.04,-89.05 z" /><path
             id="path132"
             style="fill:none;stroke:#af61b7;stroke-width:13.42300034;stroke-linecap:butt;stroke-linejoin:miter;stroke-miterlimit:10;stroke-dasharray:none;stroke-opacity:1"
             d="m 5026.39,3217.61 c 0,-49.18 -39.86,-89.05 -89.04,-89.05 -49.18,0 -89.06,39.87 -89.06,89.05 0,49.18 39.88,89.05 89.06,89.05 49.18,0 89.04,-39.87 89.04,-89.05 z" /><path
             id="path134"
             style="fill:none;stroke:#af61b7;stroke-width:13.42300034;stroke-linecap:butt;stroke-linejoin:miter;stroke-miterlimit:10;stroke-dasharray:none;stroke-opacity:1"
             d="m 4807.63,3217.61 c 0,0 21.09,19.69 40.66,0" /><path
             id="path136"
             style="fill:none;stroke:#af61b7;stroke-width:13.42300034;stroke-linecap:butt;stroke-linejoin:miter;stroke-miterlimit:10;stroke-dasharray:none;stroke-opacity:1"
             d="m 4629.54,3217.61 -28.05,0.71" /><path
             id="path138"
             style="fill:none;stroke:#af61b7;stroke-width:13.42300034;stroke-linecap:butt;stroke-linejoin:miter;stroke-miterlimit:10;stroke-dasharray:none;stroke-opacity:1"
             d="m 5026.39,3217.61 28.22,0.71" /><path
             id="path140"
             style="fill:#28262c;fill-opacity:1;fill-rule:nonzero;stroke:none"
             d="m 5057.88,3244.13 c 0,0 -99.89,135.04 -76.84,271.85 0,0 74.14,-37.31 93.45,-133.61 19.31,-96.31 -16.61,-138.24 -16.61,-138.24" /><path
             id="path142"
             style="fill:#28262c;fill-opacity:1;fill-rule:nonzero;stroke:none"
             d="m 4597.65,3234.98 c 0,0 116.05,153.38 93,290.19 0,0 -80.49,-46.5 -99.8,-142.8 -19.3,-96.31 6.8,-147.39 6.8,-147.39" /><path
             id="path144"
             style="fill:#28262c;fill-opacity:1;fill-rule:nonzero;stroke:none"
             d="m 5049.51,3462.1 c 0,0 -128.27,-140.42 -479.2,-116.38 0,0 53.74,206.05 223.81,228 0,0 196.37,23.45 255.39,-111.62" /><path
             id="path146"
             style="fill:#28262c;fill-opacity:1;fill-rule:nonzero;stroke:none"
             d="m 5208.06,3626.26 c 0,-92.54 -75.02,-167.56 -167.56,-167.56 -92.54,0 -167.56,75.02 -167.56,167.56 0,92.53 75.02,167.55 167.56,167.55 92.54,0 167.56,-75.02 167.56,-167.55" /><path
             id="path148"
             style="fill:#28262c;fill-opacity:1;fill-rule:nonzero;stroke:none"
             d="m 2995.06,1774.56 -312.08,41.56 2.85,36.24 -365.02,-48.6 c 0,0 -199.21,-533.89 -21.92,-1643.85 h 253.87 l 88.49,1125.49 h 32.45 l 91.37,-1125.49 h 253.86 c 177.3,1109.96 -23.87,1614.65 -23.87,1614.65" /><path
             id="path150"
             style="fill:#28262c;fill-opacity:1;fill-rule:nonzero;stroke:none"
             d="m 2970.17,3293 c -42.24,49.7 -76.06,107.66 -104.8,189.01 -30.86,87.33 -131.89,51.83 -131.89,51.83 0,0 -84.19,108.31 -210.88,70.58 -126.69,-37.72 -170.71,-127.87 -173.29,-235.05 -2.59,-107.19 -86.89,-123.95 -151.81,-247.94 -114.61,-218.9 78.35,-403.28 429.59,-352.13 l 0.47,3.41 c 34.59,-10.5 76.98,-15.09 128.73,-12.02 421.96,25.06 381.24,335.42 213.88,532.31" /><path
             id="path152"
             style="fill:#ec767f;fill-opacity:1;fill-rule:nonzero;stroke:none"
             d="m 2832.03,3130.67 c 34.68,-31.45 112.22,87.86 78.71,121.36 -33.5,33.5 -59.07,-19.06 -59.07,-19.06 l -14.96,-35.61 -11.29,-48.24 -2.68,-12.63 9.29,-5.82" /><path
             id="path154"
             style="fill:none;stroke:#28262c;stroke-width:9.92837048;stroke-linecap:round;stroke-linejoin:round;stroke-miterlimit:10;stroke-dasharray:none;stroke-opacity:1"
             d="m 2894.55,3209.77 c 0,0 -26.25,11.8 -49.58,-26.25" /><path
             id="path156"
             style="fill:#ec767f;fill-opacity:1;fill-rule:nonzero;stroke:none"
             d="m 2421.89,3134.29 c -31.9,-34.28 -119.26,78.05 -88.7,114.26 30.56,36.22 60.47,-13.98 60.47,-13.98 l 17.92,-34.23 15.33,-47.11 3.74,-12.36 -8.76,-6.58" /><path
             id="path158"
             style="fill:none;stroke:#28262c;stroke-width:9.92837048;stroke-linecap:round;stroke-linejoin:round;stroke-miterlimit:10;stroke-dasharray:none;stroke-opacity:1"
             d="m 2352.9,3207.81 c 0,0 25.16,13.99 51.62,-21.96" /><path
             id="path160"
             style="fill:#28262c;fill-opacity:1;fill-rule:nonzero;stroke:none"
             d="m 2892.85,3365.85 c 0,-157.94 -120.42,-232.84 -268.96,-232.84 -148.54,0 -268.96,74.9 -268.96,232.84 0,157.94 120.42,265.39 268.96,265.39 148.54,0 268.96,-107.45 268.96,-265.39" /><path
             id="path162"
             style="fill:#f79395;fill-opacity:1;fill-rule:nonzero;stroke:none"
             d="m 2733.48,2726.9 h -221.26 v 286.51 h 221.26 V 2726.9" /><path
             id="path164"
             style="fill:#28262c;fill-opacity:1;fill-rule:nonzero;stroke:none"
             d="m 2479.93,3031.28 c 0,0 61.59,-122.92 137.36,-142.11 20.24,-5.13 41.86,-3.37 61.38,3.54 28.52,10.12 64.68,52.64 70.83,99.68 l 2.85,26.88 c 0,0 -134.83,-73.41 -272.42,12.01" /><path
             id="path166"
             style="fill:#f79395;fill-opacity:1;fill-rule:nonzero;stroke:none"
             d="m 2856.29,3354.86 c 0,-96.96 -13.69,-180.63 -27.37,-240.01 -13.39,-58.14 -51.06,-98.77 -104.31,-131.48 l -9.69,-5.95 c -56.34,-34.61 -129.12,-35.41 -186.32,-2.07 v 0 c -57.69,33.63 -98.08,77.98 -110.51,140.36 -22.61,113.47 -25.08,239.15 -25.08,239.15 0,0 -21.51,244.77 228.34,240.01 249.85,-4.75 234.94,-240.01 234.94,-240.01" /><path
             id="path168"
             style="fill:none;stroke:#28262c;stroke-width:12.29759979;stroke-linecap:round;stroke-linejoin:round;stroke-miterlimit:10;stroke-dasharray:none;stroke-opacity:1"
             d="m 2607.2,3201.92 v -20.12 c 0,-2 0.39,-3.92 1.09,-5.68 2.78,-6.9 10.77,-10.2 17.99,-8.29 l 15.54,4.1" /><path
             id="path170"
             style="fill:#28262c;fill-opacity:1;fill-rule:nonzero;stroke:none"
             d="m 2659.26,3334.6 132.92,-31.46 c 0,0 -6.04,34.16 -60.42,46.58 -54.38,12.41 -72.5,-15.12 -72.5,-15.12" /><path
             id="path172"
             style="fill:#28262c;fill-opacity:1;fill-rule:nonzero;stroke:none"
             d="m 2589.47,3334.6 -134.64,-31.46 c 0,0 6.12,34.16 61.2,46.58 55.08,12.41 73.44,-15.12 73.44,-15.12" /><path
             id="path174"
             style="fill:#28262c;fill-opacity:1;fill-rule:nonzero;stroke:none"
             d="m 2541.24,3252.09 c 0,-11.49 -9.38,-20.82 -20.94,-20.82 -11.57,0 -20.95,9.33 -20.95,20.82 0,11.5 9.38,20.83 20.95,20.83 11.56,0 20.94,-9.33 20.94,-20.83" /><path
             id="path176"
             style="fill:#28262c;fill-opacity:1;fill-rule:nonzero;stroke:none"
             d="m 2739.76,3252.09 c 0,-11.49 -9.38,-20.82 -20.94,-20.82 -11.57,0 -20.94,9.33 -20.94,20.82 0,11.5 9.37,20.83 20.94,20.83 11.56,0 20.94,-9.33 20.94,-20.83" /><path
             id="path178"
             style="fill:#ffffff;fill-opacity:1;fill-rule:nonzero;stroke:none"
             d="m 2527.41,3133.01 h 183.79 c 0,0 -12.97,-50.5 -96.31,-50.5 -63.47,0 -87.48,50.5 -87.48,50.5" /><path
             id="path180"
             style="fill:#28262c;fill-opacity:1;fill-rule:nonzero;stroke:none"
             d="m 2396.22,3273.71 c 0,0 99.9,135.05 76.86,271.86 0,0 -74.15,-37.31 -93.46,-133.62 -19.3,-96.3 16.6,-138.24 16.6,-138.24" /><path
             id="path182"
             style="fill:#28262c;fill-opacity:1;fill-rule:nonzero;stroke:none"
             d="m 2856.46,3278.21 c 0,0 -116.04,139.73 -92.99,276.54 0,0 80.48,-46.49 99.79,-142.8 19.31,-96.3 -6.8,-133.74 -6.8,-133.74" /><path
             id="path184"
             style="fill:#28262c;fill-opacity:1;fill-rule:nonzero;stroke:none"
             d="m 2404.6,3491.68 c 0,0 114.63,-154.06 465.56,-130.02 0,0 -40.09,219.7 -210.17,241.64 0,0 -196.37,23.45 -255.39,-111.62" /><path
             id="path186"
             style="fill:#f79395;fill-opacity:1;fill-rule:nonzero;stroke:none"
             d="m 2084.71,1096.87 c -5.11,-8.02 292.08,1293.05 203.85,1273.38 -8.05,-1.78 -162.58,-16.14 -185.55,-62.84 -66.57,-135.36 -114.32,-1200.66 -114.32,-1200.66 l 96.02,-9.88" /><path
             id="path188"
             style="fill:#f79395;fill-opacity:1;fill-rule:nonzero;stroke:none"
             d="m 1988.69,1106.75 c 0,0 -47.9,-222.258 133.18,-246.551 11.93,-1.609 23.46,5.442 27.39,16.821 l 0.52,1.511 c 4.33,12.551 -1.96,26.02 -14.09,31.438 -29.52,13.203 -75.31,46.551 -52.6,122.301 0,0 26.18,3.21 40.62,-45.622 3.72,-12.558 17.82,-18.867 29.52,-12.976 v 0 c 7.98,4.027 12.48,12.617 11.35,21.488 -4.34,34.2 -21.54,116.51 -87.54,138.6 l -88.35,-27.01" /><path
             id="path190"
             style="fill:#ec767f;fill-opacity:1;fill-rule:nonzero;stroke:none"
             d="m 2049.62,1994.79 c 0,0 171.23,-241.14 172.14,-236.47 0.9,4.66 59.87,338.56 59.87,338.56 l -207.77,90 -24.24,-192.09" /><path
             id="path192"
             style="fill:#30867a;fill-opacity:1;fill-rule:nonzero;stroke:none"
             d="m 2525.39,2774.07 c 7.3,0.04 -423.18,-7.67 -501.86,-551.24 l 247.4,-37.91 49.88,-410.36 h 690.17 l 137.01,758.2 c 0,0 -97.4,164.27 -381.32,244.75 l -241.28,-3.44" /><path
             id="path194"
             style="fill:#f79395;fill-opacity:1;fill-rule:nonzero;stroke:none"
             d="m 2314.98,2708.36 c 0,0 60.83,-80.76 310.1,-80.76 246.96,0 310.11,84.99 310.11,84.99 0,0 -145.58,81.34 -314.51,107.65 0,0 -150.85,-26.87 -305.7,-111.88" /><path
             id="path196"
             style="fill:#315384;fill-opacity:1;fill-rule:nonzero;stroke:none"
             d="m 3161.96,986.332 0.59,-1084.0508 h 536.29 l 41.21,1084.0508 h -578.09" /><path
             id="path198"
             style="fill:#315384;fill-opacity:1;fill-rule:nonzero;stroke:none"
             d="M 4326.37,986.332 4325.79,-97.7188 H 3789.5 L 3748.28,986.332 h 578.09" /><path
             id="path200"
             style="fill:#315384;fill-opacity:1;fill-rule:nonzero;stroke:none"
             d="m 4033.48,609.719 h -554.5 v 376.613 h 554.5 V 609.719" /><path
             id="path202"
             style="fill:#f79395;fill-opacity:1;fill-rule:nonzero;stroke:none"
             d="m 4665.17,1932.37 c 33.25,-367.34 -1.83,-634.99 7.87,-1310.909 l -320.08,-13.41 -47.69,1265.219 359.9,59.1" /><path
             id="path204"
             style="fill:#ec767f;fill-opacity:1;fill-rule:nonzero;stroke:none"
             d="m 4344.74,1645.72 c 0,0 198.22,18.15 333.74,107.54 l -3.57,78.67 -330.28,-44.99 0.11,-141.22" /><path
             id="path206"
             style="fill:#af61b7;fill-opacity:1;fill-rule:nonzero;stroke:none"
             d="m 4026.75,2778.12 c 0,0 629.6,-158.33 743.67,-957.48 0,0 -308.14,-133.59 -616.94,-76.13 l 69.47,267.29 -196.2,766.32" /><path
             id="path208"
             style="fill:#f79395;fill-opacity:1;fill-rule:nonzero;stroke:none"
             d="m 2146.15,2445.83 468.78,-553.61 -143.45,-403.99 c 0,0 -356.3,495.37 -516.4,878.26 l 191.07,79.34" /><path
             id="path210"
             style="fill:#f79395;fill-opacity:1;fill-rule:nonzero;stroke:none"
             d="m 2161.56,2425.85 c 0,0 -164.61,-93 -206.48,-59.36 -73.17,58.79 -133.64,273.99 -133.64,273.99 0,0 307.83,116.05 304.94,111.52 -2.9,-4.54 35.18,-326.15 35.18,-326.15" /><path
             id="path212"
             style="fill:#f79395;fill-opacity:1;fill-rule:nonzero;stroke:none"
             d="m 2161.56,2425.85 c -2.91,16.57 61.04,195.35 82.97,262.39 5.28,16.17 -5.86,33.9 -23.42,37.26 v 0 c -11.42,2.19 -29.52,0.78 -38.07,-15.61 l -77.22,-131.96 55.74,-152.08" /><path
             id="path214"
             style="fill:#f79395;fill-opacity:1;fill-rule:nonzero;stroke:none"
             d="m 2155.92,2619.12 -53.01,263.73 c -3.15,17.55 -20.78,29.64 -38.37,26.32 v 0 c -15.23,-2.88 -25.27,-16.45 -23.48,-31.71 l 23.11,-196.38 91.75,-61.96" /><path
             id="path216"
             style="fill:#f79395;fill-opacity:1;fill-rule:nonzero;stroke:none"
             d="m 2050.5,2716.39 -71.99,188.33 c -5.95,16.49 -24.51,25.63 -40.89,20.14 v 0 c -14.21,-4.76 -22.19,-19.08 -18.82,-33.78 l 53.42,-217.62 78.28,42.93" /><path
             id="path218"
             style="fill:#f79395;fill-opacity:1;fill-rule:nonzero;stroke:none"
             d="m 1973.14,2660.86 -91.08,185.05 c -8.36,17.18 -29.16,25.15 -46.23,17.72 v 0 c -16.04,-6.97 -23.14,-25.14 -16.27,-41.65 l 72.61,-174.7 80.97,13.58" /><path
             id="path220"
             style="fill:#f79395;fill-opacity:1;fill-rule:nonzero;stroke:none"
             d="m 1821.44,2640.48 -71.47,113.37 c -5.91,13.33 -0.45,28.29 12.5,34.2 v 0 c 12.39,5.66 27.7,1.21 35.71,-10.39 l 93.99,-130.38 -70.73,-6.8" /><path
             id="path222"
             style="fill:none;stroke:#28262c;stroke-width:15.31729984;stroke-linecap:round;stroke-linejoin:round;stroke-miterlimit:10;stroke-dasharray:none;stroke-opacity:1"
             d="m 2141.51,2638.93 c 0,0 -107.33,11.26 -118.35,-131.78" /><path
             id="path224"
             style="fill:#f79395;fill-opacity:1;fill-rule:nonzero;stroke:none"
             d="m 2376.41,1677.19 c 0,0 88.16,-305.14 263.86,-264.57 175.7,40.56 449.53,415.82 449.53,415.82 l -61.29,640.74 -493.13,-606.93 -158.97,-185.06" /><path
             id="path226"
             style="fill:#ec767f;fill-opacity:1;fill-rule:nonzero;stroke:none"
             d="m 2688.33,2050.77 c 0,0 166.49,-251.12 308.51,-339.68 l 92.96,117.35 -358.61,277.41 -42.86,-55.08" /><path
             id="path228"
             style="fill:#af61b7;fill-opacity:1;fill-rule:nonzero;stroke:none"
             d="m 3416.75,2791.97 c 0,0 -488.81,-110.17 -749.29,-678.26 0,0 157.39,-237.14 409.69,-342.54 l 168.92,206.95 170.68,813.85" /><path
             id="path230"
             style="fill:#af61b7;fill-opacity:1;fill-rule:nonzero;stroke:none"
             d="M 3416.75,2793.73 C 3225.8,2695.79 3105.77,2565.9 3105.77,2565.9 l 37.67,-1660.599 h 1203.27 l -3.89,1652.029 c 0,0 -151.68,148.43 -316.07,220.79 -139.62,61.46 -474.27,85.23 -610,15.61" /><path
             id="path232"
             style="fill:none;stroke:#28262c;stroke-width:13.96809959;stroke-linecap:round;stroke-linejoin:round;stroke-miterlimit:10;stroke-dasharray:none;stroke-opacity:1"
             d="m 3986.12,1984.56 v 0 c -92.43,0 -167.37,74.93 -167.37,167.36 v 167.37 h 334.73 v -167.37 c 0,-92.43 -74.93,-167.36 -167.36,-167.36 z" /><path
             id="path234"
             style="fill:none;stroke:#28262c;stroke-width:13.96809959;stroke-linecap:round;stroke-linejoin:round;stroke-miterlimit:10;stroke-dasharray:none;stroke-opacity:1"
             d="m 4344.74,1738.34 15.62,543.23" /><path
             id="path236"
             style="fill:none;stroke:#28262c;stroke-width:13.96809959;stroke-linecap:round;stroke-linejoin:round;stroke-miterlimit:10;stroke-dasharray:none;stroke-opacity:1"
             d="m 3124.26,1828.88 -26,470.89" /><path
             id="path238"
             style="fill:#28262c;fill-opacity:1;fill-rule:nonzero;stroke:none"
             d="m 3430.84,3400.26 -50.15,248.15 c -2.82,20.21 -10.67,51.4 -1.06,80.71 15.88,48.49 74.27,141.61 174.07,98.98 l 21.57,-98.25 c 0,0 -103.64,-20.92 -145.21,-156.5 l 0.78,-173.09" /><path
             id="path240"
             style="fill:#28262c;fill-opacity:1;fill-rule:nonzero;stroke:none"
             d="m 3546.35,3776.88 c -1.81,-32.61 -30.59,-175.27 -131.77,-227.25 0,0 -88.62,190.06 131.77,227.25" /><path
             id="path242"
             style="fill:#f79395;fill-opacity:1;fill-rule:nonzero;stroke:none"
             d="m 3901.28,2839.42 v 0 421.37 h -388.44 v -421.37 l -115.63,-52.71 c 0,0 27.12,-174.64 313.93,-178.51 286.8,-3.87 315.61,169.92 315.61,169.92 l -125.47,61.3" /><path
             id="path244"
             style="fill:#28262c;fill-opacity:1;fill-rule:nonzero;stroke:none"
             d="m 3553.7,3828.1 c 0,0 71.29,188.06 291.12,88.08 133.06,-60.51 170.32,-141.65 186.17,-199.13 5.27,-19.11 7.37,-49.19 5.94,-67.05 l -53.18,-249.74 -207.59,345.52 -200.89,-15.93 -21.57,98.25" /><path
             id="path246"
             style="fill:#ec767f;fill-opacity:1;fill-rule:nonzero;stroke:none"
             d="m 3983.75,3400.26 c 0,0 26.2,41.65 80.21,21.17 54.01,-20.49 29.58,-151.66 -51.45,-168.38 0,0 -29.04,-6.34 -51.81,13.55 0,0 19.92,96.89 23.05,133.66" /><path
             id="path248"
             style="fill:none;stroke:#28262c;stroke-width:13.96809959;stroke-linecap:round;stroke-linejoin:round;stroke-miterlimit:10;stroke-dasharray:none;stroke-opacity:1"
             d="m 4053.25,3375.15 c 0,0 -45.25,15.1 -77.37,-51.53" /><path
             id="path250"
             style="fill:#ec767f;fill-opacity:1;fill-rule:nonzero;stroke:none"
             d="m 3430.84,3400.26 c 0,0 -26.18,41.65 -80.2,21.17 -54.01,-20.49 -29.58,-151.66 51.44,-168.38 0,0 29.05,-6.34 51.82,13.55 0,0 -19.92,96.89 -23.06,133.66" /><path
             id="path252"
             style="fill:none;stroke:#28262c;stroke-width:13.96809959;stroke-linecap:round;stroke-linejoin:round;stroke-miterlimit:10;stroke-dasharray:none;stroke-opacity:1"
             d="m 3361.36,3375.15 c 0,0 45.24,15.1 77.35,-51.53" /><path
             id="path254"
             style="fill:#f79395;fill-opacity:1;fill-rule:nonzero;stroke:none"
             d="m 3989.16,3524.74 c 0.03,-79.08 -7.73,-244.53 -56.34,-342.72 -45.65,-92.2 -121.15,-141.81 -220.12,-144.77 -98.98,-2.95 -172.71,35.19 -231.8,154.85 -59.09,119.66 -56.26,331.17 -56.26,331.17 0,0 0,282.49 279.19,282.49 294.06,0 285.33,-281.02 285.33,-281.02" /><path
             id="path256"
             style="fill:#28262c;fill-opacity:1;fill-rule:nonzero;stroke:none"
             d="m 3515.76,3133.13 c 0,0 32.53,-165.06 176.17,-184.02 165.32,-21.82 209.35,179.82 209.35,179.82 0,0 -73.05,-91.54 -188.58,-91.68 -128.85,-0.16 -196.94,95.88 -196.94,95.88" /><path
             id="path258"
             style="fill:none;stroke:#28262c;stroke-width:13.96809959;stroke-linecap:round;stroke-linejoin:round;stroke-miterlimit:10;stroke-dasharray:none;stroke-opacity:1"
             d="m 3686.99,3407.46 v -65.38 c 0,-2.81 0.54,-5.5 1.52,-7.96 3.88,-9.69 15.02,-14.33 25.1,-11.65 l 21.67,5.77" /><path
             id="path260"
             style="fill:#28262c;fill-opacity:1;fill-rule:nonzero;stroke:none"
             d="m 3604.53,3438.68 c 0,-14.04 -11.38,-25.42 -25.41,-25.42 -14.04,0 -25.42,11.38 -25.42,25.42 0,14.03 11.38,25.42 25.42,25.42 14.03,0 25.41,-11.39 25.41,-25.42" /><path
             id="path262"
             style="fill:#28262c;fill-opacity:1;fill-rule:nonzero;stroke:none"
             d="m 3842.84,3438.68 c 0,-14.04 -11.39,-25.42 -25.42,-25.42 -14.04,0 -25.42,11.38 -25.42,25.42 0,14.03 11.38,25.42 25.42,25.42 14.03,0 25.42,-11.39 25.42,-25.42" /><path
             id="path264"
             style="fill:#28262c;fill-opacity:1;fill-rule:nonzero;stroke:none"
             d="m 3752.36,3565.13 170.89,-44.15 c 0,0 -7.77,47.94 -77.68,65.35 -69.91,17.42 -93.21,-21.2 -93.21,-21.2" /><path
             id="path266"
             style="fill:#28262c;fill-opacity:1;fill-rule:nonzero;stroke:none"
             d="m 3646.17,3565.13 -170.89,-44.15 c 0,0 7.77,47.94 77.67,65.35 69.92,17.42 93.22,-21.2 93.22,-21.2" /><path
             id="path268"
             style="fill:none;stroke:#28262c;stroke-width:13.96809959;stroke-linecap:round;stroke-linejoin:round;stroke-miterlimit:10;stroke-dasharray:none;stroke-opacity:1"
             d="m 3612.18,3276.21 c 0,0 25.21,-19.32 91.5,-19.32 60.29,0 97.95,19.32 97.95,19.32" /><path
             id="path270"
             style="fill:none;stroke:#ffffff;stroke-width:19.51429939;stroke-linecap:butt;stroke-linejoin:miter;stroke-miterlimit:10;stroke-dasharray:none;stroke-opacity:1"
             d="m 3680.28,3431.26 c 0,-59.65 -48.36,-108.01 -108.01,-108.01 -59.64,0 -108,48.36 -108,108.01 0,59.64 48.36,108 108,108 59.65,0 108.01,-48.36 108.01,-108 z" /><path
             id="path272"
             style="fill:none;stroke:#ffffff;stroke-width:19.51429939;stroke-linecap:butt;stroke-linejoin:miter;stroke-miterlimit:10;stroke-dasharray:none;stroke-opacity:1"
             d="m 3945.6,3431.26 c 0,-59.65 -48.35,-108.01 -108,-108.01 -59.65,0 -108.01,48.36 -108.01,108.01 0,59.64 48.36,108 108.01,108 59.65,0 108,-48.36 108,-108 z" /><path
             id="path274"
             style="fill:none;stroke:#ffffff;stroke-width:19.51429939;stroke-linecap:butt;stroke-linejoin:miter;stroke-miterlimit:10;stroke-dasharray:none;stroke-opacity:1"
             d="m 3680.28,3431.26 c 0,0 25.58,23.87 49.31,0" /><path
             id="path276"
             style="fill:none;stroke:#ffffff;stroke-width:19.51429939;stroke-linecap:butt;stroke-linejoin:miter;stroke-miterlimit:10;stroke-dasharray:none;stroke-opacity:1"
             d="m 3464.27,3431.26 -36.21,0.91" /><path
             id="path278"
             style="fill:none;stroke:#ffffff;stroke-width:19.51429939;stroke-linecap:butt;stroke-linejoin:miter;stroke-miterlimit:10;stroke-dasharray:none;stroke-opacity:1"
             d="m 3945.6,3431.26 40.43,0.65" /><path
             id="path280"
             style="fill:#28262c;fill-opacity:1;fill-rule:nonzero;stroke:none"
             d="m 3515.76,3770.42 c 0,0 51.87,-147.35 285.9,-142.83 159.04,3.07 197.04,-112.01 197.04,-112.01 0,0 -27.68,257.27 -34.96,254.84 -7.27,-2.42 -241.99,62.63 -241.99,62.63 l -205.99,-62.63" /></g></g><path
         id="path282"
         style="fill:#1f1d21;fill-opacity:1;fill-rule:nonzero;stroke:none"
         d="m 3848.66,345.289 c -4.33,-4.43 -8.04,-9.297 -11.09,-14.527 l -4.65,2.41 c -0.67,2.969 -3.49,5.019 -6.59,4.66 -3.31,-0.391 -5.68,-3.391 -5.29,-6.703 0.39,-3.309 3.39,-5.668 6.7,-5.277 0.65,0.078 1.27,0.25 1.83,0.519 l 4.52,-2.351 c -2.51,-5.528 -4.33,-11.379 -5.39,-17.43 l 7.47,-1.32 c 2.29,13.062 8.49,25.07 17.91,34.73 l -5.42,5.289" /><path
         id="path284"
         style="fill:#1f1d21;fill-opacity:1;fill-rule:nonzero;stroke:none"
         d="m 3903.53,368.309 c -1.71,0 -3.41,-0.059 -5.1,-0.168 l -0.73,6.257 c 1.87,1.5 2.96,3.891 2.66,6.454 -0.46,3.929 -4.03,6.738 -7.95,6.277 -3.94,-0.457 -6.75,-4.02 -6.28,-7.949 0.29,-2.551 1.89,-4.621 4.04,-5.641 l 0.73,-6.238 c -7.14,-1.172 -14.02,-3.332 -20.59,-6.461 l 3.27,-6.852 c 9.33,4.481 19.41,6.742 29.95,6.742 4.97,0 9.93,-0.519 14.76,-1.582 l 1.6,7.411 c -5.35,1.16 -10.85,1.75 -16.36,1.75" /><path
         id="path286"
         style="fill:#1f1d21;fill-opacity:1;fill-rule:nonzero;stroke:none"
         d="m 3969.55,342.84 c 3.32,0.402 5.67,3.41 5.26,6.719 -0.4,3.312 -3.41,5.66 -6.72,5.25 -3.1,-0.379 -5.35,-3.028 -5.3,-6.079 l -4.16,-3.628 c -4.18,4.296 -8.9,8.117 -14.08,11.386 l -4.04,-6.406 c 11.34,-7.152 20.21,-17.273 25.64,-29.25 l 6.9,3.129 c -2.51,5.531 -5.67,10.711 -9.42,15.437 l 4.02,3.512 c 0.62,-0.121 1.25,-0.16 1.9,-0.07" /><path
         id="path288"
         style="fill:#1f1d21;fill-opacity:1;fill-rule:nonzero;stroke:none"
         d="m 3898.06,266.23 c -3.87,-0.23 -7.75,-0.351 -11.57,-0.351 -8.81,0 -17.34,0.601 -24.79,1.801 -3.9,0.609 -8.45,1.539 -12.7,2.922 10.47,-18.622 30.69,-31.25 53.88,-31.25 28.56,0 52.62,19.16 59.5,45.027 -6.82,-4.5 -15.06,-8.258 -24.58,-11.231 -11.8,-3.679 -25.55,-6.066 -39.74,-6.918" /><path
         id="path290"
         style="fill:#1f1d21;fill-opacity:1;fill-rule:nonzero;stroke:none"
         d="m 3929.31,297.082 c -7.5,0 -13.6,6.098 -13.6,13.598 0,7.5 6.1,13.609 13.6,13.609 7.5,0 13.6,-6.109 13.6,-13.609 0,-7.5 -6.1,-13.598 -13.6,-13.598 z M 3881.94,288 c -10.2,0 -18.5,8.301 -18.5,18.488 0,10.211 8.3,18.512 18.5,18.512 10.19,0 18.49,-8.301 18.49,-18.512 0,-10.187 -8.3,-18.488 -18.49,-18.488 z m 21.59,65.148 c -33.52,0 -60.79,-26.668 -60.79,-59.437 0,-4.25 0.46,-8.492 1.37,-12.609 6.73,-4.821 27.06,-8.903 53.47,-7.313 28.8,1.742 52.97,9.582 66.72,21.59 -0.05,1.941 -0.2,3.902 -0.45,5.812 -3.8,29.618 -29.73,51.957 -60.32,51.957" /><path
         id="path292"
         style="fill:#1f1d21;fill-opacity:1;fill-rule:nonzero;stroke:none"
         d="m 4063.57,334.48 c -2.95,1.161 -8.06,3.09 -13.83,2.379 -5.51,-0.699 -8.44,-3.41 -8.44,-10.07 v -8.66 h 22.29 V 300.961 H 4041.3 V 246.41 h -19.31 v 54.551 h -13.4 v 17.168 h 13.4 v 8.883 c 0,16.797 8.95,27.82 25.68,27.82 6.43,0 11.57,-1.211 15.9,-3.07 V 334.48" /><path
         id="path294"
         style="fill:#1f1d21;fill-opacity:1;fill-rule:nonzero;stroke:none"
         d="m 4110.59,301.16 c -1.77,0.301 -3.57,0.461 -5.26,0.461 -8.96,0 -15.1,-5.48 -15.1,-16.129 V 246.41 h -19.32 v 71.719 h 18.73 v -7.848 c 4.51,6.731 11.4,9.77 20.21,9.77 4.14,0 8.47,-1.27 10.94,-3.371 l -10.2,-15.52" /><path
         id="path296"
         style="fill:#1f1d21;fill-opacity:1;fill-rule:nonzero;stroke:none"
         d="m 4136.12,289.031 h 31.76 c -1.78,9.18 -7.34,14.367 -15.62,14.367 -9.11,0 -14.43,-5.476 -16.14,-14.367 z m 51.15,-6.66 c 0,-2.211 -0.16,-4.883 -0.37,-6.512 h -50.85 c 2.07,-10.359 9.33,-14.867 18.43,-14.867 6.22,0 12.95,2.52 18.13,6.879 l 11.32,-12.43 c -8.14,-7.48 -18.5,-10.89 -30.57,-10.89 -21.98,0 -37.22,14.961 -37.22,37.531 0,22.578 14.8,37.969 36.27,37.969 20.64,0 34.78,-15.321 34.86,-37.68" /><path
         id="path298"
         style="fill:#1f1d21;fill-opacity:1;fill-rule:nonzero;stroke:none"
         d="m 4212.65,289.031 h 31.76 c -1.78,9.18 -7.34,14.367 -15.62,14.367 -9.11,0 -14.43,-5.476 -16.14,-14.367 z m 51.15,-6.66 c 0,-2.211 -0.15,-4.883 -0.37,-6.512 h -50.85 c 2.07,-10.359 9.33,-14.867 18.43,-14.867 6.22,0 12.95,2.52 18.13,6.879 l 11.32,-12.43 c -8.13,-7.48 -18.49,-10.89 -30.56,-10.89 -21.99,0 -37.23,14.961 -37.23,37.531 0,22.578 14.8,37.969 36.27,37.969 20.64,0 34.78,-15.321 34.86,-37.68" /><path
         id="path300"
         style="fill:#1f1d21;fill-opacity:1;fill-rule:nonzero;stroke:none"
         d="m 4290.48,282.301 c 0,-11.321 7.48,-19.762 18.43,-19.762 11.41,0 18.51,8.813 18.51,19.762 0,10.949 -7.1,19.758 -18.51,19.758 -10.95,0 -18.43,-8.438 -18.43,-19.758 z m 56.77,0 c 0,-21.539 -14.95,-37.75 -34.71,-37.75 -9.62,0 -16.43,3.781 -21.09,9.328 v -37.078 h -19.25 v 101.328 h 18.88 v -7.918 c 4.66,5.84 11.54,9.84 21.38,9.84 19.84,0 34.79,-16.211 34.79,-37.75" /><path
         id="path302"
         style="fill:#1f1d21;fill-opacity:1;fill-rule:nonzero;stroke:none"
         d="m 4375.7,246.41 h -19.32 v 71.719 h 19.32 z m 2.59,95.18 c 0,-6.961 -5.41,-12.281 -12.36,-12.281 -6.96,0 -12.28,5.32 -12.28,12.281 0,6.961 5.32,12.43 12.28,12.43 6.95,0 12.36,-5.469 12.36,-12.43" /><path
         id="path304"
         style="fill:#1f1d21;fill-opacity:1;fill-rule:nonzero;stroke:none"
         d="m 4407.93,292.59 27.03,25.539 h 23.68 l -34.79,-33.75 35.01,-37.969 h -23.76 l -27.17,29.012 V 246.41 h -19.31 v 106.582 h 19.31 V 292.59" /><path
         id="path306"
         style="fill:#1f1d21;fill-opacity:1;fill-rule:nonzero;stroke:none"
         d="m 3091.74,266.238 v 32.082 c -3.96,6.149 -12.45,11.43 -21.24,11.43 -14.21,0 -22.71,-11.719 -22.71,-27.398 0,-15.672 8.5,-27.243 22.71,-27.243 8.79,0 17.28,4.981 21.24,11.129 z m 0,-19.179 v 10.55 c -5.28,-7.187 -13.92,-12.308 -23.88,-12.308 -18.46,0 -31.49,14.058 -31.49,37.051 0,22.558 12.89,37.207 31.49,37.207 9.53,0 18.16,-4.688 23.88,-12.45 v 37.653 h 10.99 v -97.703 h -10.99" /><path
         id="path308"
         style="fill:#1f1d21;fill-opacity:1;fill-rule:nonzero;stroke:none"
         d="m 3151.65,310.48 c -15.09,0 -22.56,-12.75 -23.15,-23.589 h 46.44 c -0.15,10.55 -7.18,23.589 -23.29,23.589 z m -34.72,-27.98 c 0,20.512 14.65,37.059 34.86,37.059 21.39,0 33.99,-16.7 33.99,-37.938 v -2.781 h -57.28 c 0.88,-13.328 10.26,-24.461 25.49,-24.461 8.05,0 16.26,3.23 21.82,8.93 l 5.28,-7.18 c -7.03,-7.027 -16.55,-10.828 -28.13,-10.828 -20.94,0 -36.03,15.078 -36.03,37.199" /><path
         id="path310"
         style="fill:#1f1d21;fill-opacity:1;fill-rule:nonzero;stroke:none"
         d="m 3193.69,256.441 5.71,7.899 c 4.68,-5.418 13.62,-10.11 23.28,-10.11 10.84,0 16.71,5.129 16.71,12.161 0,17.14 -43.8,6.589 -43.8,32.808 0,10.992 9.52,20.36 26.36,20.36 12.01,0 20.51,-4.539 26.22,-10.25 l -5.12,-7.618 c -4.25,5.129 -12.02,8.938 -21.1,8.938 -9.67,0 -15.67,-4.84 -15.67,-11.137 0,-15.523 43.8,-5.273 43.8,-32.812 0,-11.871 -9.52,-21.379 -27.83,-21.379 -11.58,0 -21.39,3.508 -28.56,11.14" /><path
         id="path312"
         style="fill:#1f1d21;fill-opacity:1;fill-rule:nonzero;stroke:none"
         d="m 3264.29,247.059 v 70.742 h 10.98 v -70.742 z m -1.91,88.171 c 0,4.11 3.37,7.481 7.33,7.481 4.1,0 7.47,-3.371 7.47,-7.481 0,-4.101 -3.37,-7.32 -7.47,-7.32 -3.96,0 -7.33,3.219 -7.33,7.32" /><path
         id="path314"
         style="fill:#1f1d21;fill-opacity:1;fill-rule:nonzero;stroke:none"
         d="m 3344.7,267.41 v 30.91 c -3.81,6.149 -12.3,11.43 -21.09,11.43 -14.21,0 -22.71,-11.281 -22.71,-26.961 0,-15.519 8.5,-26.949 22.71,-26.949 8.79,0 17.28,5.422 21.09,11.57 z m -51.26,-38.508 5.56,8.2 c 5.86,-7.032 12.89,-9.68 23,-9.68 11.71,0 22.7,5.719 22.7,21.238 v 10.121 c -5.13,-7.191 -13.77,-12.609 -23.73,-12.609 -18.46,0 -31.49,13.769 -31.49,36.617 0,22.711 12.89,36.77 31.49,36.77 9.52,0 18.02,-4.688 23.73,-12.45 v 10.692 h 10.99 v -68.699 c 0,-23.442 -16.41,-30.75 -33.69,-30.75 -12.02,0 -20.22,2.339 -28.56,10.55" /><path
         id="path316"
         style="fill:#1f1d21;fill-opacity:1;fill-rule:nonzero;stroke:none"
         d="m 3421.75,247.059 v 46.281 c 0,12.449 -6.3,16.41 -15.82,16.41 -8.65,0 -16.85,-5.281 -20.95,-10.988 v -51.703 h -10.99 v 70.742 h 10.99 v -10.25 c 4.98,5.859 14.65,12.008 25.19,12.008 14.8,0 22.56,-7.469 22.56,-22.848 v -49.652 h -10.98" /><path
         id="path318"
         style="fill:#1f1d21;fill-opacity:1;fill-rule:nonzero;stroke:none"
         d="m 3481.65,310.48 c -15.08,0 -22.55,-12.75 -23.14,-23.589 h 46.44 c -0.15,10.55 -7.18,23.589 -23.3,23.589 z m -34.71,-27.98 c 0,20.512 14.65,37.059 34.86,37.059 21.39,0 33.99,-16.7 33.99,-37.938 v -2.781 h -57.28 c 0.88,-13.328 10.25,-24.461 25.49,-24.461 8.05,0 16.26,3.23 21.82,8.93 l 5.28,-7.18 c -7.03,-7.027 -16.56,-10.828 -28.13,-10.828 -20.94,0 -36.03,15.078 -36.03,37.199" /><path
         id="path320"
         style="fill:#1f1d21;fill-opacity:1;fill-rule:nonzero;stroke:none"
         d="m 3581.11,266.238 v 32.082 c -3.95,6.149 -12.45,11.43 -21.24,11.43 -14.21,0 -22.7,-11.719 -22.7,-27.398 0,-15.672 8.49,-27.243 22.7,-27.243 8.79,0 17.29,4.981 21.24,11.129 z m 0,-19.179 v 10.55 c -5.27,-7.187 -13.91,-12.308 -23.87,-12.308 -18.46,0 -31.5,14.058 -31.5,37.051 0,22.558 12.89,37.207 31.5,37.207 9.52,0 18.16,-4.688 23.87,-12.45 v 37.653 h 10.99 v -97.703 h -10.99" /><path
         id="path322"
         style="fill:#1f1d21;fill-opacity:1;fill-rule:nonzero;stroke:none"
         d="m 3676.61,255.109 c 14.36,0 22.86,11.571 22.86,27.243 0,15.679 -8.5,27.398 -22.86,27.398 -8.64,0 -17.28,-5.281 -21.09,-11.43 v -32.082 c 3.81,-6.148 12.45,-11.129 21.09,-11.129 z m -32.07,-8.05 v 97.703 h 10.98 v -37.653 c 5.71,7.762 14.21,12.45 23.88,12.45 18.45,0 31.49,-14.649 31.49,-37.207 0,-22.993 -13.04,-37.051 -31.49,-37.051 -9.96,0 -18.61,5.121 -23.88,12.308 v -10.55 h -10.98" /><path
         id="path324"
         style="fill:#1f1d21;fill-opacity:1;fill-rule:nonzero;stroke:none"
         d="m 3722.9,229.332 c 1.61,-0.742 4.25,-1.184 6.01,-1.184 4.82,0 8.05,1.622 10.54,7.481 l 4.69,10.691 -29.59,71.481 h 11.87 l 23.58,-58 23.43,58 h 12.01 L 3750,232.699 c -4.25,-10.25 -11.43,-14.207 -20.8,-14.347 -2.35,0 -6.01,0.429 -8.06,1.027 l 1.76,9.953" /></g></g></svg>