<svg id="Vrstva_2" data-name="Vrstva 2" xmlns="http://www.w3.org/2000/svg" xmlns:xlink="http://www.w3.org/1999/xlink" viewBox="0 0 1031.51 1031.51"><defs><style>.cls-1{fill:none;}.cls-2{fill:#e5e5e5;}.cls-3{fill:#6d4316;}.cls-4{clip-path:url(#clip-path);}.cls-5{fill:#593214;}.cls-6{clip-path:url(#clip-path-2);}.cls-7{clip-path:url(#clip-path-3);}.cls-8{clip-path:url(#clip-path-4);}.cls-9{fill:#45af04;}.cls-10{fill:#56c308;}.cls-11{fill:#85ea2d;}.cls-12{fill:#f28c38;}.cls-13{clip-path:url(#clip-path-5);}.cls-14{fill:#cc7337;}</style><clipPath id="clip-path"><path class="cls-1" d="M721.56,458.88v.32c0,.22,0,.56,0,1,0,.83,0,2-.13,3.53a73.2,73.2,0,0,1-1.91,12.39,71.75,71.75,0,0,1-2.48,8.14c-.49,1.44-1.15,2.87-1.77,4.37s-1.36,3-2.21,4.45a67.59,67.59,0,0,1-5.72,8.9c-1.16,1.4-2.26,2.9-3.56,4.23l-1.91,2.05-2,1.94c-1.34,1.33-2.84,2.47-4.29,3.68s-3,2.21-4.56,3.31-3.15,2-4.74,2.87-3.21,1.7-4.81,2.47l-4.79,2.08L672,526.29c-1.53.55-3,.91-4.48,1.35l-2.15.61-2.07.47-3.91.86c-1.24.25-2.41.41-3.53.6l-3.11.5c-1,.16-1.83.21-2.63.31l-5,.52a15.36,15.36,0,1,1,.27-30.54l.45.06,3.85.49c.61.07,1.31.19,2,.24l2.38.17c.85.05,1.77.15,2.72.18l3,0,1.6,0,1.63-.08c1.1-.07,2.28-.06,3.43-.2l3.59-.4,3.68-.66c1.24-.27,2.46-.61,3.74-.92s2.48-.8,3.76-1.21,2.49-1,3.7-1.54,2.46-1.14,3.61-1.86l1.78-1,1.7-1.14c1.17-.73,2.19-1.63,3.3-2.45a51.89,51.89,0,0,0,5.86-5.67c.93-1,1.7-2.06,2.54-3.07s1.56-2.09,2.22-3.16a60.13,60.13,0,0,0,3.6-6.22,63.89,63.89,0,0,0,4.06-10.17c.39-1.27.64-2.28.8-2.95l.17-.72c0-.14.05-.28.05-.27a3.5,3.5,0,0,1,7,.45Z"/></clipPath><clipPath id="clip-path-2"><path class="cls-1" d="M449.36,578.06v.25c0,.17,0,.42,0,.75,0,.63,0,1.54-.1,2.69a55.64,55.64,0,0,1-1.45,9.42,54.54,54.54,0,0,1-1.89,6.19c-.38,1.1-.87,2.18-1.34,3.32s-1,2.27-1.68,3.39a51.38,51.38,0,0,1-4.35,6.76c-.88,1.06-1.72,2.2-2.7,3.21l-1.45,1.56-1.55,1.47c-1,1-2.16,1.87-3.26,2.8s-2.31,1.68-3.47,2.51-2.4,1.49-3.6,2.18-2.44,1.29-3.66,1.88L415.23,628l-3.55,1.28c-1.16.42-2.3.69-3.41,1l-1.64.47-1.58.36-3,.66c-.94.19-1.84.31-2.68.46l-2.37.38c-.73.12-1.39.16-2,.23l-3.81.39a11.68,11.68,0,1,1,.2-23.21l.34,0,2.93.37c.47.05,1,.15,1.55.18l1.81.13c.65,0,1.35.11,2.06.14l2.26,0h1.22l1.24-.06c.84-.06,1.73,0,2.61-.15l2.73-.3,2.8-.5c.94-.21,1.87-.47,2.85-.7s1.88-.61,2.86-.92,1.89-.73,2.81-1.17,1.87-.87,2.74-1.41l1.35-.78,1.29-.87c.89-.55,1.67-1.24,2.51-1.86a39.44,39.44,0,0,0,4.45-4.31c.71-.74,1.29-1.57,1.93-2.33s1.18-1.59,1.69-2.4a45.7,45.7,0,0,0,2.74-4.73,48.56,48.56,0,0,0,3.09-7.73c.29-1,.49-1.73.61-2.24l.13-.55c0-.11,0-.21,0-.2a2.66,2.66,0,0,1,5.31.34Z"/></clipPath><clipPath id="clip-path-3"><path class="cls-1" d="M434.52,675.43c0-62.82-39-82.82-75.36-82.82-32.43,0-12.45-34.86-12.45-34.86h-28s-28.55,64.85,29.34,64.85c2.44,0,4.76.1,7,.28-13.4,6.73-31.5,25.73-31.5,79.32l27.5,2.09s-7.11-60.94,30.78-64.56a13.61,13.61,0,0,1,13.45,7.36c7,13.82,5.63,28.33,5.63,28.33Z"/></clipPath><clipPath id="clip-path-4"><path class="cls-1" d="M678.19,552v.61c0,.8,0,1.7,0,2.42,0,1.45-.13,2.92-.25,4.4a70.41,70.41,0,0,1-1.4,9.15A63.55,63.55,0,0,1,669.28,587a66.14,66.14,0,0,1-12.13,15,86.22,86.22,0,0,1-13.29,10,182,182,0,0,1-23.35,11.71c-6.9,3-13,5.53-18.1,8A80.67,80.67,0,0,0,589.84,639a32.63,32.63,0,0,0-7,6.7,25,25,0,0,0-3.42,6.36,45.22,45.22,0,0,0-2.39,14.5c0,1.78,0,3.48.07,5.07H511.9c.13-3.08.37-6.56.81-10.45a119.05,119.05,0,0,1,3-16.29,96.85,96.85,0,0,1,7.4-19.65,87,87,0,0,1,14.35-20.32,94.5,94.5,0,0,1,20.32-16.08c14.58-8.67,29.64-13.21,42.4-17.55a140.68,140.68,0,0,0,16.52-6.41,37.85,37.85,0,0,0,5.2-3,15.94,15.94,0,0,0,2.85-2.52,10,10,0,0,0,1.83-3.2,18.34,18.34,0,0,0,.7-2.53c.09-.49.18-1,.26-1.54l.09-.58,0-.13,0-.38,0-.74,0-.38v.08l0-.4c0-.26,0-.52,0-.77,0-.51,0-1,0-1.46a24.25,24.25,0,0,0-.18-2.55,13.5,13.5,0,0,0-1.18-4.17,15.7,15.7,0,0,0-3.08-4.26,32.89,32.89,0,0,0-5.9-4.57,83.43,83.43,0,0,0-18-7.92,220.54,220.54,0,0,0-22-5.74C569.85,516.43,562,515,554,513.63c-15.9-2.74-32-5.22-48-8.65-8-1.73-15.9-3.69-23.75-6.19A125.57,125.57,0,0,1,459.19,489a75.57,75.57,0,0,1-10.88-7.35,60.06,60.06,0,0,1-5.56-5.16,51.13,51.13,0,0,1-3.93-4.61,52.26,52.26,0,0,1-3.79-5.77l-.81-1.51c-.28-.53-.57-1.15-.85-1.73s-.44-1-.6-1.35l-.23-.57-.18-.41-.07-.17-.14-.35a72.93,72.93,0,0,1-4.79-32.6,87.6,87.6,0,0,1,3.46-18.31,115.45,115.45,0,0,1,11.88-26.36,136.93,136.93,0,0,1,10.43-14.93c1.61-2,2.85-3.42,3.6-4.25l.78-.87a9.59,9.59,0,0,1,13.53-.92l.1.09a9.6,9.6,0,0,1,.83,13.44s-1.11,1.41-3,4.24a116.56,116.56,0,0,0-7.71,13.4,93.49,93.49,0,0,0-7.72,22c-1.76,8.55-2.08,18.19.84,27.4a45.3,45.3,0,0,0,2.77,6.8l0,.07a0,0,0,0,0,0,0l0,0v0l0,0,.28.54a5.6,5.6,0,0,0,.48.83l.72,1.06a23.72,23.72,0,0,0,2,2.36,37.19,37.19,0,0,0,12.24,8.07c1,.45,2.07.87,3.15,1.28a104.35,104.35,0,0,0,14.73,4.24c6.59,1.43,13.65,2.51,21,3.38,14.71,1.75,30.52,2.7,47,4,8.25.64,16.68,1.35,25.32,2.37a264.11,264.11,0,0,1,26.61,4.34,128.15,128.15,0,0,1,28.36,9.5,80.81,80.81,0,0,1,14.63,9.09,66.53,66.53,0,0,1,9,8.59h0a59.57,59.57,0,0,1,4.2,5.42,62.15,62.15,0,0,1,8.5,18.06,68.5,68.5,0,0,1,2,9.34c.2,1.53.38,3.05.49,4.55.07.75.11,1.49.15,2.23l.05,1.11v1.2l0,.75Z"/></clipPath><clipPath id="clip-path-5"><path class="cls-1" d="M663.36,828.88H311.51c-7.16,0-13-4.49-13-10L281.67,704.29H693.21L676.33,818.86C676.33,824.39,670.52,828.88,663.36,828.88Z"/></clipPath></defs><title>bonsai</title><ellipse class="cls-2" cx="487.44" cy="904.47" rx="229.49" ry="19.29"/><path class="cls-3" d="M721.56,458.88v.32c0,.22,0,.56,0,1,0,.83,0,2-.13,3.53a73.2,73.2,0,0,1-1.91,12.39,71.75,71.75,0,0,1-2.48,8.14c-.49,1.44-1.15,2.87-1.77,4.37s-1.36,3-2.21,4.45a67.59,67.59,0,0,1-5.72,8.9c-1.16,1.4-2.26,2.9-3.56,4.23l-1.91,2.05-2,1.94c-1.34,1.33-2.84,2.47-4.29,3.68s-3,2.21-4.56,3.31-3.15,2-4.74,2.87-3.21,1.7-4.81,2.47l-4.79,2.08L672,526.29c-1.53.55-3,.91-4.48,1.35l-2.15.61-2.07.47-3.91.86c-1.24.25-2.41.41-3.53.6l-3.11.5c-1,.16-1.83.21-2.63.31l-5,.52a15.36,15.36,0,1,1,.27-30.54l.45.06,3.85.49c.61.07,1.31.19,2,.24l2.38.17c.85.05,1.77.15,2.72.18l3,0,1.6,0,1.63-.08c1.1-.07,2.28-.06,3.43-.2l3.59-.4,3.68-.66c1.24-.27,2.46-.61,3.74-.92s2.48-.8,3.76-1.21,2.49-1,3.7-1.54,2.46-1.14,3.61-1.86l1.78-1,1.7-1.14c1.17-.73,2.19-1.63,3.3-2.45a51.89,51.89,0,0,0,5.86-5.67c.93-1,1.7-2.06,2.54-3.07s1.56-2.09,2.22-3.16a60.13,60.13,0,0,0,3.6-6.22,63.89,63.89,0,0,0,4.06-10.17c.39-1.27.64-2.28.8-2.95l.17-.72c0-.14.05-.28.05-.27a3.5,3.5,0,0,1,7,.45Z"/><g class="cls-4"><path class="cls-5" d="M721.56,472.88v.32c0,.22,0,.56,0,1,0,.83,0,2-.13,3.53a73.2,73.2,0,0,1-1.91,12.39,71.75,71.75,0,0,1-2.48,8.14c-.49,1.44-1.15,2.87-1.77,4.37s-1.36,3-2.21,4.45a67.59,67.59,0,0,1-5.72,8.9c-1.16,1.4-2.26,2.9-3.56,4.23l-1.91,2.05-2,1.94c-1.34,1.33-2.84,2.47-4.29,3.68s-3,2.21-4.56,3.31-3.15,2-4.74,2.87-3.21,1.7-4.81,2.47l-4.79,2.08L672,540.29c-1.53.55-3,.91-4.48,1.35l-2.15.61-2.07.47-3.91.86c-1.24.25-2.41.41-3.53.6l-3.11.5c-1,.16-1.83.21-2.63.31l-5,.52a15.36,15.36,0,1,1,.27-30.54l.45.06,3.85.49c.61.07,1.31.19,2,.24l2.38.17c.85.05,1.77.15,2.72.18l3,0,1.6,0,1.63-.08c1.1-.07,2.28-.06,3.43-.2l3.59-.4,3.68-.66c1.24-.27,2.46-.61,3.74-.92s2.48-.8,3.76-1.21,2.49-1,3.7-1.54,2.46-1.14,3.61-1.86l1.78-1,1.7-1.14c1.17-.73,2.19-1.63,3.3-2.45a51.89,51.89,0,0,0,5.86-5.67c.93-1,1.7-2.06,2.54-3.07s1.56-2.09,2.22-3.16a60.13,60.13,0,0,0,3.6-6.22,63.89,63.89,0,0,0,4.06-10.17c.39-1.27.64-2.28.8-2.95l.17-.72c0-.14.05-.28.05-.27a3.5,3.5,0,0,1,7,.45Z"/><rect class="cls-5" x="663.24" y="479.31" width="72.63" height="21.99" transform="matrix(1, 0.08, -0.08, 1, 39.67, -52.21)"/></g><path class="cls-3" d="M449.36,578.06v.25c0,.17,0,.42,0,.75,0,.63,0,1.54-.1,2.69a55.64,55.64,0,0,1-1.45,9.42,54.54,54.54,0,0,1-1.89,6.19c-.38,1.1-.87,2.18-1.34,3.32s-1,2.27-1.68,3.39a51.38,51.38,0,0,1-4.35,6.76c-.88,1.06-1.72,2.2-2.7,3.21l-1.45,1.56-1.55,1.47c-1,1-2.16,1.87-3.26,2.8s-2.31,1.68-3.47,2.51-2.4,1.49-3.6,2.18-2.44,1.29-3.66,1.88L415.23,628l-3.55,1.28c-1.16.42-2.3.69-3.41,1l-1.64.47-1.58.36-3,.66c-.94.19-1.84.31-2.68.46l-2.37.38c-.73.12-1.39.16-2,.23l-3.81.39a11.68,11.68,0,1,1,.2-23.21l.34,0,2.93.37c.47.05,1,.15,1.55.18l1.81.13c.65,0,1.35.11,2.06.14l2.26,0h1.22l1.24-.06c.84-.06,1.73,0,2.61-.15l2.73-.3,2.8-.5c.94-.21,1.87-.47,2.85-.7s1.88-.61,2.86-.92,1.89-.73,2.81-1.17,1.87-.87,2.74-1.41l1.35-.78,1.29-.87c.89-.55,1.67-1.24,2.51-1.86a39.44,39.44,0,0,0,4.45-4.31c.71-.74,1.29-1.57,1.93-2.33s1.18-1.59,1.69-2.4a45.7,45.7,0,0,0,2.74-4.73,48.56,48.56,0,0,0,3.09-7.73c.29-1,.49-1.73.61-2.24l.13-.55c0-.11,0-.21,0-.2a2.66,2.66,0,0,1,5.31.34Z"/><g class="cls-6"><path class="cls-5" d="M455.11,585.78V586c0,.17,0,.42,0,.75,0,.63,0,1.54-.1,2.69a55.64,55.64,0,0,1-1.45,9.42,54.54,54.54,0,0,1-1.89,6.19c-.38,1.1-.87,2.18-1.34,3.32s-1,2.27-1.68,3.39a51.38,51.38,0,0,1-4.35,6.76c-.88,1.06-1.72,2.2-2.7,3.21l-1.45,1.56-1.55,1.47c-1,1-2.16,1.87-3.26,2.8s-2.31,1.68-3.47,2.51-2.4,1.49-3.6,2.18-2.44,1.29-3.66,1.88L421,635.74,417.43,637c-1.16.42-2.3.69-3.41,1l-1.64.47-1.58.36-3,.66c-.94.19-1.84.31-2.68.46l-2.37.38c-.73.12-1.39.16-2,.23L397,641a11.68,11.68,0,1,1,.2-23.21l.34,0,2.93.37c.47.05,1,.15,1.55.18l1.81.13c.65,0,1.35.11,2.06.14l2.26,0h1.22l1.24-.06c.84-.06,1.73,0,2.61-.15l2.73-.3,2.8-.5c.94-.21,1.87-.47,2.85-.7s1.88-.61,2.86-.92,1.89-.73,2.81-1.17,1.87-.87,2.74-1.41l1.35-.78,1.29-.87c.89-.55,1.67-1.24,2.51-1.86a39.44,39.44,0,0,0,4.45-4.31c.71-.74,1.29-1.57,1.93-2.33s1.18-1.59,1.69-2.4a45.7,45.7,0,0,0,2.74-4.73,48.56,48.56,0,0,0,3.09-7.73c.29-1,.49-1.73.61-2.24l.13-.55c0-.11,0-.21,0-.2a2.66,2.66,0,0,1,5.31.34Z"/><rect class="cls-5" x="417.85" y="598.78" width="33.33" height="9" transform="translate(30.31 -20.71) rotate(2.83)"/></g><path class="cls-3" d="M434.52,675.43c0-62.82-39-82.82-75.36-82.82-32.43,0-12.45-34.86-12.45-34.86h-28s-28.55,64.85,29.34,64.85c2.44,0,4.76.1,7,.28-13.4,6.73-31.5,25.73-31.5,79.32l27.5,2.09s-7.11-60.94,30.78-64.56a13.61,13.61,0,0,1,13.45,7.36c7,13.82,5.63,28.33,5.63,28.33Z"/><g class="cls-7"><path class="cls-5" d="M338.08,677s-12.69-21.58,14.25-53.35l-42.5,16.87v40Z"/><path class="cls-5" d="M383,640.74s24.73-2,26.5,34.69c1.39,28.86-15.84-.13-15.84-.13Z"/><path class="cls-5" d="M352.73,622.72s-45,4.24-39-49.43c5.8-51.85-18,36.94-18,36.94l10.86,30.51Z"/><polygon class="cls-5" points="354.79 572.21 303 572.24 305.34 539.92 363.01 546.44 354.79 572.21"/><path class="cls-5" d="M410.37,608.27s1.07,1.5,2.72,4.39c.82,1.45,1.79,3.25,2.85,5.38a67.07,67.07,0,0,1,4.42,8.05,76.66,76.66,0,0,1,3.29,8.37C431.44,652,429.44,672,434.44,691c9-9,10-21,9.45-32,0-4.58,0-9.17,0-9.17L442,646.7c-4.61-7.65-8.61-15.65-13.38-23.17l-2.84-4.93-6.31-10.93Z"/><path class="cls-5" d="M299.92,563.37a6.25,6.25,0,0,1,3.54,1.09c0-.36-.05-.72-.05-1.09a12.56,12.56,0,1,1,23.95,5.31,4.29,4.29,0,1,1,3.11,7.25l-.43,0v0H299.92a6.28,6.28,0,0,1,0-12.56Z"/></g><path class="cls-3" d="M678.19,552v.61c0,.8,0,1.7,0,2.42,0,1.45-.13,2.92-.25,4.4a70.41,70.41,0,0,1-1.4,9.15A63.55,63.55,0,0,1,669.28,587a66.14,66.14,0,0,1-12.13,15,86.22,86.22,0,0,1-13.29,10,182,182,0,0,1-23.35,11.71c-6.9,3-13,5.53-18.1,8A80.67,80.67,0,0,0,589.84,639a32.63,32.63,0,0,0-7,6.7,25,25,0,0,0-3.42,6.36,45.22,45.22,0,0,0-2.39,14.5c0,1.78,0,3.48.07,5.07H511.9c.13-3.08.37-6.56.81-10.45a119.05,119.05,0,0,1,3-16.29,96.85,96.85,0,0,1,7.4-19.65,87,87,0,0,1,14.35-20.32,94.5,94.5,0,0,1,20.32-16.08c14.58-8.67,29.64-13.21,42.4-17.55a140.68,140.68,0,0,0,16.52-6.41,37.85,37.85,0,0,0,5.2-3,15.94,15.94,0,0,0,2.85-2.52,10,10,0,0,0,1.83-3.2,18.34,18.34,0,0,0,.7-2.53c.09-.49.18-1,.26-1.54l.09-.58,0-.13,0-.38,0-.74,0-.38v.08l0-.4c0-.26,0-.52,0-.77,0-.51,0-1,0-1.46a24.25,24.25,0,0,0-.18-2.55,13.5,13.5,0,0,0-1.18-4.17,15.7,15.7,0,0,0-3.08-4.26,32.89,32.89,0,0,0-5.9-4.57,83.43,83.43,0,0,0-18-7.92,220.54,220.54,0,0,0-22-5.74C569.85,516.43,562,515,554,513.63c-15.9-2.74-32-5.22-48-8.65-8-1.73-15.9-3.69-23.75-6.19A125.57,125.57,0,0,1,459.19,489a75.57,75.57,0,0,1-10.88-7.35,60.06,60.06,0,0,1-5.56-5.16,51.13,51.13,0,0,1-3.93-4.61,52.26,52.26,0,0,1-3.79-5.77l-.81-1.51c-.28-.53-.57-1.15-.85-1.73s-.44-1-.6-1.35l-.23-.57-.18-.41-.07-.17-.14-.35a72.93,72.93,0,0,1-4.79-32.6,87.6,87.6,0,0,1,3.46-18.31,115.45,115.45,0,0,1,11.88-26.36,136.93,136.93,0,0,1,10.43-14.93c1.61-2,2.85-3.42,3.6-4.25l.78-.87a9.59,9.59,0,0,1,13.53-.92l.1.09a9.6,9.6,0,0,1,.83,13.44s-1.11,1.41-3,4.24a116.56,116.56,0,0,0-7.71,13.4,93.49,93.49,0,0,0-7.72,22c-1.76,8.55-2.08,18.19.84,27.4a45.3,45.3,0,0,0,2.77,6.8l0,.07a0,0,0,0,0,0,0l0,0v0l0,0,.28.54a5.6,5.6,0,0,0,.48.83l.72,1.06a23.72,23.72,0,0,0,2,2.36,37.19,37.19,0,0,0,12.24,8.07c1,.45,2.07.87,3.15,1.28a104.35,104.35,0,0,0,14.73,4.24c6.59,1.43,13.65,2.51,21,3.38,14.71,1.75,30.52,2.7,47,4,8.25.64,16.68,1.35,25.32,2.37a264.11,264.11,0,0,1,26.61,4.34,128.15,128.15,0,0,1,28.36,9.5,80.81,80.81,0,0,1,14.63,9.09,66.53,66.53,0,0,1,9,8.59h0a59.57,59.57,0,0,1,4.2,5.42,62.15,62.15,0,0,1,8.5,18.06,68.5,68.5,0,0,1,2,9.34c.2,1.53.38,3.05.49,4.55.07.75.11,1.49.15,2.23l.05,1.11v1.2l0,.75Z"/><g class="cls-8"><rect class="cls-5" x="346.22" y="317.77" width="186.73" height="115.78"/><path class="cls-5" d="M615.56,570.59l-.42,0v0a33.48,33.48,0,0,0-66-8,21.84,21.84,0,0,0-31.36,19.65c0,.28,0,.55,0,.82a10.92,10.92,0,1,0-4.15,21h43.51a4.93,4.93,0,0,0,4.6,6.75H608a7.59,7.59,0,0,0,7.54-6.75h0a16.74,16.74,0,1,0,0-33.48Z"/><path class="cls-5" d="M678.94,552.58c-.17,21.46-10.17,43.46-28,55.54-1.55,1-3.14,2-4.74,2.91-3.19,1.87-6.4,3.64-9.38,5.46-2.46,1.32-5,2.58-7.48,3.8a59.32,59.32,0,0,1-11.94,5.24c-2,.71-4,1.42-5.86,2.25C598.77,634,583.77,640,579.17,653.7a28.5,28.5,0,0,0-1.19,5.83,57.51,57.51,0,0,0-.62,7.44c0,1.78,0,3.48.07,5.07H560.61a47.89,47.89,0,0,1-.45-6.46,50.62,50.62,0,0,1,.41-6.46c2.2-26.07,28.2-39.07,49.83-46.89,2.28-.92,4.55-1.85,6.79-2.82a119.74,119.74,0,0,0,13-6.47c2.08-1.22,4.11-2.53,6.08-3.94,23.47-16,41.47-44,32.86-72.66a72.59,72.59,0,0,0-2.43-8.27,88.4,88.4,0,0,0-3.65-8.67,59.57,59.57,0,0,1,4.2,5.42,60.65,60.65,0,0,1,5,8.75,64.3,64.3,0,0,1,3.51,9.32c1,6.16,3,12.16,3.13,19.33Z"/></g><path class="cls-9" d="M801.28,451.21a15.6,15.6,0,0,0-5.94,1.18c0-.39,0-.78,0-1.18a31.32,31.32,0,0,0-45-28.18,48,48,0,0,0-94.63,11.48v0c-.2,0-.4,0-.61,0a24,24,0,0,0,0,48H801.28a15.66,15.66,0,1,0,0-31.31Z"/><path class="cls-9" d="M633.27,369.25a19.53,19.53,0,0,0-7.17,1.37c0-.2,0-.39,0-.59a38.41,38.41,0,0,0-58.94-32.52,60.25,60.25,0,0,0-78-46.58,74.25,74.25,0,0,0-141.06-.59,60.25,60.25,0,0,0-77,57.89,61,61,0,0,0,.69,9.18A25.77,25.77,0,1,0,267,408.49H633.27a19.62,19.62,0,0,0,0-39.25Z"/><path class="cls-10" d="M533.41,356.16a15.86,15.86,0,0,0-6,1.19c0-.4,0-.79,0-1.19a31.84,31.84,0,0,0-45.72-28.65,48.81,48.81,0,0,0-96.2,11.67v0c-.21,0-.41,0-.62,0a24.4,24.4,0,0,0,0,48.81H533.41a15.91,15.91,0,1,0,0-31.83Z"/><path class="cls-11" d="M753.68,480a8.38,8.38,0,0,0-3.2.63c0-.21,0-.42,0-.63a16.83,16.83,0,0,0-24.17-15.15A25.81,25.81,0,0,0,675.47,471v0l-.33,0a12.9,12.9,0,0,0,0,25.81h78.54a8.41,8.41,0,1,0,0-16.83Z"/><path class="cls-11" d="M455.75,377a24,24,0,0,0-13.58,4.19c.12-1.38.19-2.78.19-4.19a48.2,48.2,0,1,0-91.87,20.38,16.47,16.47,0,1,0-11.93,27.82c.56,0,1.11,0,1.65-.08v.08H455.75a24.1,24.1,0,0,0,0-48.2Z"/><path class="cls-9" d="M479.84,591.37a6.58,6.58,0,0,0-2.51.5c0-.17,0-.33,0-.5a13.2,13.2,0,0,0-19-11.88,20.24,20.24,0,0,0-39.89,4.84h-.25a10.12,10.12,0,1,0,0,20.24h61.6a6.6,6.6,0,0,0,0-13.2Z"/><path class="cls-9" d="M509.5,576.91a10.88,10.88,0,0,1,4.15.82c0-.27,0-.54,0-.82A21.84,21.84,0,0,1,545,557.25a33.48,33.48,0,0,1,66,8v0l.42,0a16.74,16.74,0,1,1,0,33.48H509.5a10.92,10.92,0,0,1,0-21.83Z"/><path class="cls-9" d="M415.44,543.54a10.3,10.3,0,0,0-1.93.19,24.3,24.3,0,0,0,.28-3.66A24,24,0,0,0,383.1,517a29.61,29.61,0,0,0-7.55-11.93,28.1,28.1,0,0,0-52.8-6A30.39,30.39,0,0,0,282,518.71a21.45,21.45,0,0,0-25.26,21.21c0,.26,0,.51,0,.76A12.42,12.42,0,1,0,251,564.09H415.44a10.27,10.27,0,0,0,0-20.55Z"/><path class="cls-11" d="M294.92,556.37a6.25,6.25,0,0,1,3.54,1.09c0-.36-.05-.72-.05-1.09a12.56,12.56,0,1,1,23.95,5.31,4.29,4.29,0,1,1,3.11,7.25l-.43,0v0H294.92a6.28,6.28,0,0,1,0-12.56Z"/><path class="cls-10" d="M351.17,546.18a4.93,4.93,0,0,1,1.88.37c0-.12,0-.25,0-.37a9.9,9.9,0,0,1,14.22-8.91,15.18,15.18,0,0,1,29.92,3.63h.19a7.59,7.59,0,0,1,0,15.18h-46.2a5,5,0,1,1,0-9.9Z"/><path class="cls-11" d="M557.61,595.59a4.93,4.93,0,0,1,1.88.37c0-.12,0-.25,0-.37a9.9,9.9,0,0,1,14.22-8.91,15.18,15.18,0,0,1,29.92,3.63h.19a7.59,7.59,0,0,1,0,15.18h-46.2a5,5,0,1,1,0-9.9Z"/><path class="cls-12" d="M663.36,830.54H311.51c-7.16,0-13-4.49-13-10L281.67,706H693.21L676.33,820.52C676.33,826.06,670.52,830.54,663.36,830.54Z"/><g class="cls-13"><rect class="cls-14" x="257.95" y="686.37" width="458.98" height="46.41" rx="12.28" ry="12.28" transform="translate(-22.32 15.86) rotate(-1.82)"/></g><rect class="cls-12" x="257.95" y="671.63" width="458.98" height="46.41" rx="12.28" ry="12.28"/></svg>