<svg id="Vrstva_1" data-name="Vrstva 1" xmlns="http://www.w3.org/2000/svg" xmlns:xlink="http://www.w3.org/1999/xlink" viewBox="0 0 167.15 162.12"><defs><style>.cls-1{fill:url(#linear-gradient);}.cls-2{fill:url(#linear-gradient-2);}.cls-3{fill:url(#linear-gradient-3);}.cls-4{opacity:0.25;}.cls-5{fill:url(#linear-gradient-4);}.cls-6{fill:url(#linear-gradient-5);}</style><linearGradient id="linear-gradient" x1="-0.01" y1="88.78" x2="83.57" y2="88.78" gradientUnits="userSpaceOnUse"><stop offset="0" stop-color="#1db4ff"/><stop offset="1" stop-color="#0f72e5"/></linearGradient><linearGradient id="linear-gradient-2" x1="-0.01" y1="48.25" x2="167.14" y2="48.25" xlink:href="#linear-gradient"/><linearGradient id="linear-gradient-3" x1="83.57" y1="88.78" x2="167.14" y2="88.78" xlink:href="#linear-gradient"/><linearGradient id="linear-gradient-4" x1="0" y1="97.47" x2="167.15" y2="97.47" xlink:href="#linear-gradient"/><linearGradient id="linear-gradient-5" x1="0" y1="113.87" x2="167.15" y2="113.87" xlink:href="#linear-gradient"/></defs><title>blok</title><polygon class="cls-1" points="83.57 96.5 83.57 129.31 -0.01 81.06 -0.01 48.25 14.19 56.45 28.41 64.66 56.82 81.06 83.57 96.5"/><polygon class="cls-2" points="167.14 48.25 152.94 56.45 138.73 64.66 110.31 81.06 83.57 96.5 56.82 81.06 28.41 64.66 14.19 56.45 -0.01 48.25 83.57 0 167.14 48.25"/><polygon class="cls-3" points="167.14 48.25 167.14 81.06 83.57 129.31 83.57 96.5 110.31 81.06 138.73 64.66 152.94 56.45 167.14 48.25"/><g class="cls-4"><polygon class="cls-5" points="83.57 49.22 0 97.47 83.57 145.72 167.15 97.47 83.57 49.22"/></g><g class="cls-4"><polygon class="cls-6" points="83.57 65.62 0 113.87 83.57 162.12 167.15 113.87 83.57 65.62"/></g></svg>