<svg width="49" height="49" viewBox="0 0 49 49" fill="none" xmlns="http://www.w3.org/2000/svg">
<g clip-path="url(#clip0)">
<path d="M0.28278 10.2375C0.563282 9.83547 1.01462 9.58699 1.50489 9.56605L31.9 8.25588C32.7721 8.21772 33.5009 8.89101 33.5382 9.75904C33.5753 10.6267 32.9031 11.3599 32.0351 11.3972L3.69779 12.6188L9.26951 30.0029H34.0643L38.5439 5.61208C38.6423 5.07751 39.0094 4.63154 39.5155 4.43295L46.8523 1.55065C47.6609 1.23407 48.5733 1.63125 48.8909 2.43886C49.2079 3.24691 48.8108 4.15991 48.0027 4.47747L41.4791 7.04024L36.9205 31.8592C36.7831 32.6053 36.1329 33.1472 35.3739 33.1472H34.6178L36.3445 37.9435C36.489 38.3453 36.4295 38.7915 36.1835 39.1405C35.9379 39.4897 35.5384 39.6974 35.112 39.6974H33.9008C34.6513 40.5326 35.112 41.6323 35.112 42.8417C35.112 45.4426 32.9957 47.5583 30.3955 47.5583C27.7952 47.5583 25.6789 45.4426 25.6789 42.8417C25.6789 41.6325 26.1396 40.5326 26.89 39.6974H16.6068C17.3576 40.5326 17.8182 41.6323 17.8182 42.8417C17.8182 45.4426 15.7025 47.5583 13.1017 47.5583C10.5007 47.5583 8.38513 45.4426 8.38513 42.8417C8.38513 41.6325 8.84569 40.5326 9.59595 39.6974H8.12306C7.39933 39.6974 6.81289 39.1108 6.81289 38.3873C6.81289 37.6636 7.39944 37.0771 8.12306 37.0771H33.2478L31.833 33.1467H8.12317C7.43946 33.1467 6.83449 32.7051 6.62626 32.0546L0.075531 11.6162C-0.0749168 11.1497 0.00228119 10.6397 0.28278 10.2375ZM30.3953 44.9385C31.5514 44.9385 32.4916 43.9984 32.4916 42.8423C32.4916 41.6862 31.5514 40.746 30.3953 40.746C29.2392 40.746 28.2992 41.6862 28.2992 42.8423C28.2992 43.9984 29.2392 44.9385 30.3953 44.9385ZM13.1017 44.9385C14.2577 44.9385 15.1978 43.9984 15.1978 42.8423C15.1978 41.6862 14.2577 40.746 13.1017 40.746C11.9455 40.746 11.0055 41.6862 11.0055 42.8423C11.0055 43.9984 11.9455 44.9385 13.1017 44.9385Z" fill="white"/>
</g>
<defs>
<clipPath id="clip0">
<rect width="49" height="49" fill="white" transform="matrix(-1 0 0 1 49 0)"/>
</clipPath>
</defs>
</svg>
