<svg xmlns="http://www.w3.org/2000/svg" xmlns:xlink="http://www.w3.org/1999/xlink" viewBox="0 0 1031.51 1031.51"><defs><style>.cls-1{fill:none;}.cls-2{fill:#c0eaff;}.cls-3{fill:#e5e5e5;}.cls-4{fill:#6d4316;}.cls-5{clip-path:url(#clip-path);}.cls-6{fill:#593214;}.cls-7{clip-path:url(#clip-path-2);}.cls-8{fill:#45af04;}.cls-9{fill:#85ea2d;}.cls-10{fill:#56c308;}.cls-11{fill:#f28c38;}.cls-12{clip-path:url(#clip-path-3);}.cls-13{fill:#cc7337;}</style><clipPath id="clip-path"><path class="cls-1" d="M685,447.13v.42c0,.29,0,.73,0,1.3,0,1.09,0,2.65-.17,4.63a95.85,95.85,0,0,1-2.5,16.22,94,94,0,0,1-3.25,10.66c-.65,1.89-1.5,3.76-2.31,5.72s-1.79,3.91-2.89,5.83a88.51,88.51,0,0,1-7.49,11.65c-1.52,1.83-3,3.79-4.66,5.54l-2.5,2.69-2.67,2.54c-1.76,1.75-3.72,3.23-5.62,4.82s-4,2.89-6,4.33c-2.07,1.27-4.13,2.57-6.21,3.76s-4.2,2.23-6.3,3.23l-6.27,2.73-6.12,2.2c-2,.72-4,1.19-5.87,1.77l-2.82.8-2.71.62-5.12,1.13c-1.63.33-3.16.54-4.62.79l-4.08.65c-1.26.2-2.4.28-3.44.4l-6.56.68a20.12,20.12,0,1,1,.35-40l.59.08,5,.64c.8.09,1.71.25,2.67.31l3.11.22c1.11.07,2.32.2,3.56.23l3.9,0,2.09,0,2.13-.11c1.44-.1,3-.08,4.5-.27l4.7-.52,4.82-.87c1.62-.35,3.22-.8,4.9-1.2s3.24-1,4.92-1.58,3.25-1.27,4.84-2,3.23-1.49,4.72-2.44l2.33-1.34,2.22-1.5c1.54-1,2.87-2.14,4.33-3.21a68,68,0,0,0,7.67-7.43c1.22-1.28,2.23-2.7,3.32-4s2-2.73,2.91-4.14a78.73,78.73,0,0,0,4.71-8.15,83.66,83.66,0,0,0,5.32-13.32c.51-1.66.84-3,1-3.86l.22-.95c0-.18.07-.36.07-.35a4.58,4.58,0,0,1,9.15.59Z"/></clipPath><clipPath id="clip-path-2"><path class="cls-1" d="M659.45,614.87c0-108.23-67.1-142.68-129.83-142.68-55.87,0-21.45-60.05-21.45-60.05H460s-49.19,111.72,50.54,111.72c4.2,0,8.2.17,12,.48-23.09,11.59-54.27,44.32-54.27,136.65l47.37,3.6s-12.25-105,53-111.21a23.45,23.45,0,0,1,23.17,12.68c12.09,23.8,9.7,48.81,9.7,48.81Z"/></clipPath><clipPath id="clip-path-3"><path class="cls-1" d="M599.41,636.9H399.32L401.1,649l15.11,102.48c0,5.53,5.8,10,13,10H703c7.16,0,13-4.49,13-10L731.09,649l1.78-12.09Z"/></clipPath></defs><title>bonsai</title><g id="Vrstva_3" data-name="Vrstva 3"><path class="cls-2" d="M493.79,718.83c-55.64-9.17-150.22-24.75-179-89-23.69-52.9,12.56-104.56-26.66-151-21.26-25.14-42.58-23.13-53.88-50.38-11.5-27.71-2.93-65.53,18-89,26.44-29.65,55-16.72,98.87-46.42,34-23,37.25-45.72,56.49-63.83,58.94-55.52,212.73-44.12,306.93,33.26C834.69,361.2,863.23,571,766.25,669.84,687,750.66,552.25,728.46,493.79,718.83Z"/><path class="cls-2" d="M328.11,282.87c-3.25,1.53-43.27,19.75-70.28,1.12-2.76-1.9-10-7.32-11.62-16.23a22.1,22.1,0,0,1,.87-10.66c7.64-24.52,42.9-40.48,42.9-40.48,28.5-15.67,70.7-24.24,83.22-6.63C384.55,226,360.54,267.59,328.11,282.87Z"/><path class="cls-2" d="M276.38,501.9c-10.63-18.19-33.52-28-48.81-17.93-13.64,9-11.34,31.09-11.14,32.31,4.07,24.22,27.42,47,49.29,38.35C280.48,548.78,287.45,520.84,276.38,501.9Z"/><path class="cls-2" d="M267.44,565.2c-2.85,3.39-2.89,8,1.18,10.71,3.26,2.16,8.81.36,10.24-3.87,1.14-3.38-.28-7.93-3.77-9.24C272.22,561.72,269.08,563.25,267.44,565.2Z"/></g><g id="Vrstva_2" data-name="Vrstva 2"><ellipse class="cls-3" cx="566.1" cy="835.41" rx="190.49" ry="24.04"/><path class="cls-4" d="M685,447.13v.42c0,.29,0,.73,0,1.3,0,1.09,0,2.65-.17,4.63a95.85,95.85,0,0,1-2.5,16.22,94,94,0,0,1-3.25,10.66c-.65,1.89-1.5,3.76-2.31,5.72s-1.79,3.91-2.89,5.83a88.51,88.51,0,0,1-7.49,11.65c-1.52,1.83-3,3.79-4.66,5.54l-2.5,2.69-2.67,2.54c-1.76,1.75-3.72,3.23-5.62,4.82s-4,2.89-6,4.33c-2.07,1.27-4.13,2.57-6.21,3.76s-4.2,2.23-6.3,3.23l-6.27,2.73-6.12,2.2c-2,.72-4,1.19-5.87,1.77l-2.82.8-2.71.62-5.12,1.13c-1.63.33-3.16.54-4.62.79l-4.08.65c-1.26.2-2.4.28-3.44.4l-6.56.68a20.12,20.12,0,1,1,.35-40l.59.08,5,.64c.8.09,1.71.25,2.67.31l3.11.22c1.11.07,2.32.2,3.56.23l3.9,0,2.09,0,2.13-.11c1.44-.1,3-.08,4.5-.27l4.7-.52,4.82-.87c1.62-.35,3.22-.8,4.9-1.2s3.24-1,4.92-1.58,3.25-1.27,4.84-2,3.23-1.49,4.72-2.44l2.33-1.34,2.22-1.5c1.54-1,2.87-2.14,4.33-3.21a68,68,0,0,0,7.67-7.43c1.22-1.28,2.23-2.7,3.32-4s2-2.73,2.91-4.14a78.73,78.73,0,0,0,4.71-8.15,83.66,83.66,0,0,0,5.32-13.32c.51-1.66.84-3,1-3.86l.22-.95c0-.18.07-.36.07-.35a4.58,4.58,0,0,1,9.15.59Z"/><g class="cls-5"><path class="cls-6" d="M694.93,460.42v.42c0,.29,0,.73,0,1.3,0,1.09,0,2.65-.17,4.63a95.85,95.85,0,0,1-2.5,16.22A94,94,0,0,1,689,493.65c-.65,1.89-1.5,3.76-2.31,5.72s-1.79,3.91-2.89,5.83a88.51,88.51,0,0,1-7.49,11.65c-1.52,1.83-3,3.79-4.66,5.54l-2.5,2.69-2.67,2.54c-1.76,1.75-3.72,3.23-5.62,4.82s-4,2.89-6,4.33c-2.07,1.27-4.13,2.57-6.21,3.76s-4.2,2.23-6.3,3.23l-6.27,2.73-6.12,2.2c-2,.72-4,1.19-5.87,1.77l-2.82.8-2.71.62L613.49,553c-1.63.33-3.16.54-4.62.79l-4.08.65c-1.26.2-2.4.28-3.44.4l-6.56.68a20.12,20.12,0,1,1,.35-40l.59.08,5,.64c.8.09,1.71.25,2.67.31l3.11.22c1.11.07,2.32.2,3.56.23l3.9,0,2.09,0,2.13-.11c1.44-.1,3-.08,4.5-.27l4.7-.52,4.82-.87c1.62-.35,3.22-.8,4.9-1.2s3.24-1,4.92-1.58,3.25-1.27,4.84-2,3.23-1.49,4.72-2.44l2.33-1.34,2.22-1.5c1.54-1,2.87-2.14,4.33-3.21a68,68,0,0,0,7.67-7.43c1.22-1.28,2.23-2.7,3.32-4s2-2.73,2.91-4.14a78.73,78.73,0,0,0,4.71-8.15A83.66,83.66,0,0,0,684.44,465c.51-1.66.84-3,1-3.86l.22-.95c0-.18.07-.36.07-.35a4.58,4.58,0,0,1,9.15.59Z"/><rect class="cls-6" x="630.74" y="482.83" width="57.42" height="15.5" transform="translate(25.02 -31.95) rotate(2.83)"/></g><path class="cls-4" d="M659.45,614.87c0-108.23-67.1-142.68-129.83-142.68-55.87,0-21.45-60.05-21.45-60.05H460s-49.19,111.72,50.54,111.72c4.2,0,8.2.17,12,.48-23.09,11.59-54.27,44.32-54.27,136.65l47.37,3.6s-12.25-105,53-111.21a23.45,23.45,0,0,1,23.17,12.68c12.09,23.8,9.7,48.81,9.7,48.81Z"/><g class="cls-7"><path class="cls-6" d="M493.31,617.51s-21.85-37.17,24.55-91.91l-73.21,29.06v68.93Z"/><path class="cls-6" d="M570.65,555.11a32.82,32.82,0,0,1,8.83.85c.74.16,1.52.36,2.32.59,8.1,1.9,13.1,7.9,16.62,14.44q.88,1.51,1.73,3.07c1.55,3.88,3.35,8.1,5.15,12.47.9,2.18,1.8,4.41,2.64,6.66,4,13.26,8,34.26-3,40.26-6,3-11-13-16.17-21.35-1.13-2.26-2.18-4.48-3.14-6.56s-1.82-4-2.55-5.73q-1-3.07-2-6.21c-2.45-8.37-4.36-17-6.48-25.63l-2.06-6.67Z"/><path class="cls-6" d="M518.55,524.07s-77.5,7.31-67.14-85.16c10-89.33-31,63.64-31,63.64l18.72,52.56Z"/><polygon class="cls-6" points="522.09 437.05 432.88 437.1 436.91 381.43 536.26 392.66 522.09 437.05"/><path class="cls-6" d="M617.85,499.17s1.84,2.58,4.68,7.57c1.42,2.5,3.09,5.6,4.9,9.27a115.54,115.54,0,0,1,7.62,13.87,132.06,132.06,0,0,1,5.67,14.42c13.43,30.28,10,64.73,18.6,97.46,15.5-15.5,17.23-36.18,16.28-55.21,0-7.89-.07-15.8-.07-15.8l-3.1-5.38c-7.94-13.19-14.83-27-23-39.92l-4.9-8.49-10.87-18.83Z"/><path class="cls-6" d="M427.58,421.83a10.77,10.77,0,0,1,6.1,1.88c-.05-.62-.09-1.25-.09-1.88A21.64,21.64,0,1,1,474.85,431a7.4,7.4,0,1,1,5.36,12.49c-.25,0-.5,0-.74,0v0H427.58a10.82,10.82,0,0,1,0-21.64Z"/></g><path class="cls-8" d="M737.53,470.06a11.33,11.33,0,0,0-4.32.85c0-.28,0-.57,0-.85a22.75,22.75,0,0,0-32.66-20.47,34.87,34.87,0,0,0-68.73,8.34v0l-.44,0a17.43,17.43,0,1,0,0,34.87H737.53a11.37,11.37,0,0,0,0-22.74Z"/><path class="cls-8" d="M626.59,387.67a17.74,17.74,0,0,0-3.33.32,41.86,41.86,0,0,0,.48-6.3,41.37,41.37,0,0,0-52.87-39.75,51,51,0,0,0-13-20.55,48.41,48.41,0,0,0-91-10.35,52.36,52.36,0,0,0-70.25,33.85,36.95,36.95,0,0,0-43.51,36.53c0,.44.05.87.07,1.31a21.4,21.4,0,1,0-10,40.34H626.59a17.7,17.7,0,0,0,0-35.4Z"/><path class="cls-9" d="M419,409.77a10.77,10.77,0,0,1,6.1,1.88c-.05-.62-.09-1.25-.09-1.88a21.64,21.64,0,1,1,41.26,9.15,7.4,7.4,0,1,1,5.36,12.49c-.25,0-.5,0-.74,0v0H419a10.82,10.82,0,0,1,0-21.64Z"/><path class="cls-10" d="M515.87,392.21a8.5,8.5,0,0,1,3.24.64c0-.21,0-.43,0-.64a17.06,17.06,0,0,1,24.5-15.35,26.15,26.15,0,0,1,51.55,6.25v0l.33,0a13.08,13.08,0,0,1,0,26.15H515.87a8.53,8.53,0,1,1,0-17.06Z"/><path class="cls-11" d="M599.41,636.9H399.32L401.1,649l15.11,102.48c0,5.53,5.8,10,13,10H703c7.16,0,13-4.49,13-10L731.09,649l1.78-12.09Z"/><g class="cls-12"><rect class="cls-13" x="336.61" y="617.32" width="458.98" height="46.41" rx="12.28" ry="12.28" transform="translate(-20.08 18.32) rotate(-1.82)"/></g><path class="cls-11" d="M744.3,602.58H387.89a12.28,12.28,0,0,0-12.29,12.28V636.7A12.29,12.29,0,0,0,387.89,649H744.3a12.28,12.28,0,0,0,12.28-12.29V614.86A12.28,12.28,0,0,0,744.3,602.58Z"/><path class="cls-10" d="M690.18,475.21a4.76,4.76,0,0,0-1.81.36c0-.12,0-.24,0-.36a9.55,9.55,0,0,0-13.71-8.59,14.64,14.64,0,0,0-28.85,3.5h-.18a7.32,7.32,0,0,0,0,14.64h44.55a4.77,4.77,0,1,0,0-9.55Z"/></g></svg>